<?xml version="1.0" encoding="utf-8"?>
<!-- Generator: Adobe Illustrator 26.3.1, SVG Export Plug-In . SVG Version: 6.00 Build 0)  -->
<svg version="1.1" id="레이어_1" xmlns="http://www.w3.org/2000/svg" xmlns:xlink="http://www.w3.org/1999/xlink" x="0px"
	 y="0px" viewBox="0 0 289 75" style="enable-background:new 0 0 289 75;" xml:space="preserve">
<style type="text/css">
	.st0{display:none;fill:#F7F7F7;}
	.st1{display:none;}
	.st2{display:inline;}
	.st3{fill:#FFFFFF;}
	.st4{fill:#A6A6A5;}
	.st5{display:none;fill:#FFFFFF;}
	.st6{fill:url(#SVGID_1_);}
	.st7{fill:url(#SVGID_00000037669932216255446040000001869837013992137881_);}
	.st8{fill:url(#SVGID_00000072976348715695117360000013629730787613859750_);}
	.st9{fill:url(#SVGID_00000116207844817682597980000015710392008294470065_);}
	.st10{fill:url(#SVGID_00000151541992903510286960000014620368049073636523_);}
	.st11{fill:url(#SVGID_00000173842940010502626910000018210093987928149387_);}
	.st12{fill:url(#SVGID_00000049921315948595569080000017783917019961848215_);}
	.st13{fill:url(#SVGID_00000021106099348113851120000013407756907596374196_);}
	.st14{fill:url(#SVGID_00000112632226055936252610000014369070777170632597_);}
	.st15{fill:url(#SVGID_00000084501301517324921000000004441900107172508305_);}
	.st16{fill:url(#SVGID_00000129196646106846196440000013495073781818502331_);}
	.st17{fill:url(#SVGID_00000103233267811536305750000001314500920612902056_);}
	.st18{fill:url(#SVGID_00000062883812687611535510000014819469610424131517_);}
	.st19{fill:url(#SVGID_00000111166356118633537790000006706839245181244844_);}
	.st20{fill:url(#SVGID_00000106844859208914563230000014317863316406442148_);}
	.st21{fill:url(#SVGID_00000118359677457223110780000007055401027586032054_);}
	.st22{fill:url(#SVGID_00000163074068801018287190000016292822497481643184_);}
	.st23{fill:url(#SVGID_00000181048033475030134560000013824530409293334426_);}
	.st24{fill:url(#SVGID_00000080922569097305789560000017920225828623890600_);}
	.st25{fill:url(#SVGID_00000037656476937492101400000015798716019173701301_);}
	.st26{fill:url(#SVGID_00000036968141664429161080000006578534132225478029_);}
	.st27{fill:url(#SVGID_00000074419389152047394590000012840484118949921214_);}
	.st28{fill:url(#SVGID_00000099650797580608617210000012666596719351471792_);}
	.st29{fill:url(#SVGID_00000103961387221594429350000007324462798832069254_);}
	.st30{fill:url(#SVGID_00000109745581040459736200000014460787728624364675_);}
	.st31{fill:url(#SVGID_00000026126825688332924280000013813557227219728551_);}
	.st32{fill:url(#SVGID_00000086651521565336273550000016275596949197707694_);}
	.st33{fill:url(#SVGID_00000039818551224466048920000001094822378731653520_);}
	.st34{fill:url(#SVGID_00000174578664612511615720000007044082748850721942_);}
	.st35{fill:url(#SVGID_00000089560837385949854820000017501399973212448136_);}
	.st36{fill:url(#SVGID_00000153687244404171749670000012693747060721629057_);}
	.st37{fill:url(#SVGID_00000052789817915855743200000005905212481855535545_);}
	.st38{fill:url(#SVGID_00000012451642432750840190000013905844469033248929_);}
	.st39{fill:url(#SVGID_00000068667900105704847060000001342669472741811338_);}
	.st40{fill:url(#SVGID_00000168082162710934878970000001607571704686035612_);}
	.st41{fill:url(#SVGID_00000029746914602209429630000009678370126391424141_);}
	.st42{fill:url(#SVGID_00000068659677565885935270000016131150959621833651_);}
	.st43{fill:url(#SVGID_00000065047423680783931210000018173994367966880163_);}
	.st44{fill:url(#SVGID_00000072278714398591258440000010975327175108413096_);}
	.st45{fill:url(#SVGID_00000133522677909076169120000004701060368058294919_);}
	.st46{fill:url(#SVGID_00000119840772424068436230000007470965728353004990_);}
	.st47{fill:url(#SVGID_00000111892597107283581740000014848426936532569520_);}
	.st48{fill:url(#SVGID_00000178170608209129183450000008059390097435943098_);}
	.st49{fill:url(#SVGID_00000147215819384579015510000009924858985979826566_);}
	.st50{fill:url(#SVGID_00000039836791619675622670000006994115953339557276_);}
</style>
<rect x="30" y="205.8" class="st0" width="999.2" height="274.5"/>
<rect x="30" y="-1220" class="st1" width="999.2" height="108.6"/>
<g class="st1">
	<g class="st2">
		<path class="st3" d="M121.7-1178.4c1.8,0,3.3,0.2,4.7,0.6s2.7,1.1,4,2.2l-2.4,3.4c-1-0.9-2-1.4-3.1-1.7c-1-0.3-2.1-0.4-3.2-0.4
			c-0.8,0-1.5,0.1-2.2,0.3c-0.7,0.2-1.4,0.6-1.9,1.2c-0.6,0.6-1,1.4-1.4,2.4c-0.3,1-0.5,2.3-0.5,3.8v2.6c0,1.3,0.2,2.5,0.5,3.4
			c0.3,0.9,0.8,1.7,1.3,2.3c0.6,0.6,1.2,1,1.9,1.3c0.7,0.3,1.5,0.4,2.3,0.4c1.2,0,2.4-0.2,3.6-0.5c1.2-0.4,2.3-1.1,3.3-2.1l2.4,3.4
			c-0.8,0.8-1.5,1.3-2.4,1.8s-1.7,0.8-2.5,1c-0.8,0.2-1.6,0.4-2.4,0.5s-1.5,0.1-2.2,0.1c-1.4,0-2.7-0.2-3.9-0.6
			c-1.2-0.4-2.3-1-3.3-1.9s-1.7-2-2.3-3.3c-0.6-1.3-0.8-2.9-0.8-4.8v-4.5c0-1.9,0.3-3.5,0.8-4.9s1.3-2.5,2.3-3.4
			c1-0.9,2.1-1.6,3.3-2C118.9-1178.2,120.2-1178.4,121.7-1178.4z"/>
		<path class="st3" d="M137.7-1172.1l4.4,14.2h0.1l4.4-14.2h4.7l-10,27.3l-4.1-1.4l2.5-6.3l-6.9-19.5H137.7z"/>
		<path class="st3" d="M158.7-1155v2.2h-4.2v-26.5h4.4v9.1c0.3-0.4,0.7-0.8,1.1-1.1s0.9-0.5,1.4-0.7c0.5-0.2,1-0.3,1.4-0.4
			c0.5-0.1,0.9-0.1,1.3-0.1c1.2,0,2.3,0.2,3.3,0.6c0.9,0.4,1.7,0.9,2.4,1.7s1.1,1.6,1.4,2.6c0.3,1,0.5,2.1,0.5,3.4v3.4
			c0,1.3-0.2,2.5-0.6,3.5s-0.9,1.9-1.6,2.6c-0.7,0.7-1.5,1.3-2.4,1.6c-0.9,0.4-2,0.6-3.2,0.6c-1.3,0-2.4-0.2-3.2-0.7
			S159.2-1154.3,158.7-1155L158.7-1155L158.7-1155z M167.3-1163.6c0-1.6-0.3-2.9-0.9-3.8c-0.6-0.9-1.7-1.3-3.1-1.3
			c-1.5,0-2.6,0.4-3.3,1.3s-1.1,1.9-1.1,3.3v4.1c0,0.4,0.1,0.9,0.4,1.3c0.2,0.5,0.6,0.9,0.9,1.2c0.4,0.4,0.9,0.7,1.4,0.9
			c0.6,0.2,1.2,0.3,1.9,0.3c1.3,0,2.3-0.4,2.9-1.3s1-2.2,1-3.8L167.3-1163.6L167.3-1163.6z"/>
		<path class="st3" d="M191.6-1154.6c-0.9,0.6-2,1.1-3.3,1.5s-2.8,0.6-4.6,0.6c-1.1,0-2.2-0.2-3.3-0.4c-1.1-0.3-2-0.8-2.8-1.5
			s-1.5-1.6-2-2.8c-0.5-1.2-0.8-2.6-0.8-4.3v-2c0-1.6,0.2-2.9,0.7-4c0.5-1.1,1.1-2.1,1.9-2.8s1.7-1.3,2.8-1.6s2.2-0.5,3.4-0.5
			c1.2,0,2.3,0.2,3.4,0.5c1,0.3,1.9,0.9,2.7,1.6s1.3,1.6,1.8,2.7s0.6,2.3,0.6,3.7v3.2h-12.9c0,1.5,0.4,2.7,1.2,3.5
			c0.8,0.8,2,1.2,3.5,1.2c1.1,0,2.2-0.1,3.1-0.4s1.8-0.7,2.8-1.2L191.6-1154.6z M187.9-1164.2v-0.8c0-0.5-0.1-1-0.2-1.5
			s-0.4-0.9-0.8-1.2s-0.8-0.6-1.3-0.8c-0.5-0.2-1.2-0.3-2-0.3c-1.5,0-2.6,0.4-3.3,1.2c-0.7,0.8-1.1,1.7-1.1,2.8v0.7L187.9-1164.2
			L187.9-1164.2z"/>
		<path class="st3" d="M207.4-1168.1c-0.3-0.1-0.7-0.2-1.1-0.3c-0.4-0.1-0.8-0.1-1.4-0.1c-0.6,0-1.2,0.1-1.7,0.3
			c-0.5,0.2-1,0.5-1.4,0.9c-0.4,0.4-0.7,0.8-0.9,1.4s-0.3,1.1-0.3,1.7v11.4h-4.4v-19.3h4.2v2.8h0.1c0.5-1,1.2-1.8,2.1-2.3
			s2-0.9,3.3-0.9c0.5,0,1,0,1.5,0.1c0.5,0.1,0.9,0.2,1.3,0.3L207.4-1168.1z"/>
		<path class="st3" d="M228.9-1156.4c1.6,0,2.8-0.3,3.5-0.9s1.1-1.3,1.1-2.2v-0.4c0-1-0.4-1.8-1.1-2.3s-1.9-0.9-3.3-1.2
			c-1.1-0.2-2.1-0.5-3.2-0.7c-1.1-0.3-2-0.6-2.9-1.2c-0.9-0.5-1.6-1.2-2.1-2.1s-0.8-2.1-0.8-3.5v-0.5c0-0.8,0.1-1.6,0.5-2.4
			c0.3-0.8,0.8-1.6,1.5-2.3c0.7-0.7,1.6-1.3,2.8-1.7c1.2-0.5,2.6-0.7,4.3-0.7c1.4,0,2.7,0.2,4,0.4c1.3,0.3,2.6,0.8,3.9,1.7l-2.1,3.5
			c-1-0.7-2-1.1-2.9-1.3c-0.9-0.2-1.8-0.3-2.8-0.3c-0.8,0-1.5,0.1-2.1,0.3c-0.6,0.2-1.1,0.4-1.4,0.7c-0.4,0.3-0.7,0.6-0.9,1
			s-0.3,0.7-0.3,1.1v0.4c0,0.6,0.1,1.1,0.4,1.5c0.3,0.4,0.7,0.7,1.2,0.9s1.1,0.4,1.7,0.6c0.7,0.2,1.4,0.3,2.1,0.5
			c1.5,0.3,2.8,0.7,3.8,1.2c1,0.5,1.8,1,2.4,1.6s1.1,1.3,1.3,2s0.4,1.5,0.4,2.4v0.5c0,1.4-0.2,2.6-0.8,3.5c-0.5,0.9-1.2,1.7-2.1,2.3
			c-0.9,0.6-1.9,1-3,1.2c-1.1,0.2-2.3,0.4-3.5,0.4c-0.9,0-1.8-0.1-2.7-0.2c-0.9-0.2-1.7-0.4-2.5-0.6c-0.8-0.3-1.5-0.6-2.1-0.9
			c-0.7-0.4-1.2-0.7-1.7-1.1l2.2-3.6c0.8,0.7,1.8,1.2,3,1.7C226-1156.7,227.4-1156.4,228.9-1156.4z"/>
		<path class="st3" d="M242.4-1179.7h4.6v4.8h-4.6V-1179.7z M242.5-1172.1h4.4v19.3h-4.4V-1172.1z"/>
		<path class="st3" d="M256.5-1155v2.2h-4.2v-26.5h4.4v9.1c0.3-0.4,0.7-0.8,1.1-1.1c0.5-0.3,0.9-0.5,1.4-0.7c0.5-0.2,1-0.3,1.4-0.4
			s0.9-0.1,1.3-0.1c1.2,0,2.3,0.2,3.3,0.6c1,0.4,1.7,0.9,2.4,1.7s1.1,1.6,1.4,2.6c0.3,1,0.5,2.1,0.5,3.4v3.4c0,1.3-0.2,2.5-0.6,3.5
			s-0.9,1.9-1.6,2.6c-0.7,0.7-1.5,1.3-2.4,1.6c-0.9,0.4-2,0.6-3.2,0.6c-1.3,0-2.4-0.2-3.2-0.7s-1.5-1.1-2-1.8L256.5-1155L256.5-1155
			z M265.1-1163.6c0-1.6-0.3-2.9-1-3.8s-1.7-1.3-3.1-1.3c-1.5,0-2.6,0.4-3.3,1.3s-1.1,1.9-1.1,3.3v4.1c0,0.4,0.1,0.9,0.4,1.3
			s0.5,0.9,0.9,1.2c0.4,0.4,0.9,0.7,1.4,0.9s1.2,0.3,1.9,0.3c1.3,0,2.3-0.4,2.9-1.3c0.7-0.9,1-2.2,1-3.8L265.1-1163.6L265.1-1163.6z
			"/>
		<path class="st3" d="M273.7-1179.3h4.4v26.5h-4.4V-1179.3z"/>
		<path class="st3" d="M283.4-1179.7h4.6v4.8h-4.6V-1179.7z M283.5-1172.1h4.4v19.3h-4.4V-1172.1z"/>
		<path class="st3" d="M303.2-1172.5c0.9,0,1.7,0.1,2.5,0.4c0.8,0.3,1.5,0.7,2.1,1.2s1.1,1.3,1.5,2.2c0.4,0.9,0.6,2,0.6,3.3v12.6
			h-4.4v-11.6c0-2.8-1.2-4.2-3.7-4.2c-0.4,0-0.8,0.1-1.2,0.2c-0.5,0.1-0.9,0.3-1.4,0.6c-0.4,0.3-0.8,0.8-1.1,1.3
			c-0.3,0.6-0.5,1.3-0.5,2.3v11.4h-4.4v-19.3h4.2v2.2h0.1c0.7-1,1.5-1.7,2.5-2.1C301-1172.3,302.1-1172.5,303.2-1172.5z"/>
		<path class="st3" d="M326.8-1155.4L326.8-1155.4c-0.6,0.9-1.3,1.6-2.3,2c-1,0.4-2,0.6-3.2,0.6c-2.5,0-4.3-0.7-5.5-2.2
			c-1.2-1.4-1.8-3.5-1.8-6.1v-3.1c0-1.3,0.2-2.4,0.5-3.5c0.4-1,0.9-1.9,1.6-2.6s1.5-1.3,2.4-1.7c0.9-0.4,2-0.6,3.2-0.6
			c0.8,0,1.4,0.1,2,0.2c0.6,0.1,1.1,0.3,1.5,0.5s0.8,0.4,1.1,0.7c0.3,0.2,0.5,0.5,0.6,0.7h0v-1.7h4.2v19.1c0,2.7-0.7,4.7-2.2,6
			c-1.5,1.3-3.8,2-7,2c-1.2,0-2.4-0.2-3.6-0.6c-1.2-0.4-2.2-0.9-3-1.5l2-3.4c0.2,0.2,0.5,0.3,0.8,0.5c0.4,0.2,0.7,0.4,1.1,0.5
			c0.4,0.2,0.9,0.3,1.3,0.4c0.5,0.1,0.9,0.2,1.4,0.2c1.6,0,2.8-0.3,3.5-1c0.8-0.7,1.2-1.7,1.2-3.1L326.8-1155.4L326.8-1155.4z
			 M318.3-1161.8c0,1.6,0.3,2.9,1,3.8s1.6,1.3,2.9,1.3c0.7,0,1.4-0.1,1.9-0.4s1-0.6,1.4-1c0.4-0.4,0.7-0.9,0.9-1.5
			c0.2-0.6,0.3-1.2,0.3-1.8v-3.6c0-0.4-0.1-0.9-0.3-1.3s-0.4-0.9-0.8-1.2c-0.4-0.4-0.8-0.7-1.4-0.9s-1.2-0.3-2-0.3
			c-1.4,0-2.4,0.5-3.1,1.4c-0.7,0.9-1,2.2-1,3.8L318.3-1161.8L318.3-1161.8z"/>
		<path class="st3" d="M342.8-1156.3c1,0,1.8-0.1,2.4-0.4c0.6-0.3,0.9-0.8,0.9-1.5v-0.2c0-0.3,0-0.6-0.1-0.8s-0.3-0.4-0.5-0.6
			c-0.3-0.2-0.7-0.3-1.2-0.5c-0.5-0.1-1.2-0.3-2.1-0.5c-1.2-0.2-2.2-0.5-3-0.8c-0.8-0.3-1.5-0.7-2-1.2c-0.5-0.5-0.9-1-1.1-1.7
			c-0.2-0.7-0.4-1.4-0.4-2.3v-0.3c0-0.7,0.1-1.3,0.4-1.9c0.3-0.6,0.7-1.2,1.3-1.7s1.4-0.9,2.3-1.2c0.9-0.3,2.1-0.5,3.5-0.5
			c1.1,0,2.3,0.1,3.5,0.3c1.2,0.2,2.4,0.7,3.5,1.4l-1.9,3.2c-0.6-0.4-1.4-0.8-2.2-0.9c-0.8-0.2-1.6-0.3-2.5-0.3
			c-1.4,0-2.3,0.2-2.8,0.5c-0.5,0.3-0.8,0.7-0.8,1.2v0.2c0,0.3,0,0.6,0.1,0.8c0.1,0.2,0.3,0.4,0.5,0.5c0.3,0.2,0.6,0.3,1.1,0.4
			c0.5,0.1,1.1,0.2,1.8,0.4c1.2,0.3,2.3,0.5,3.2,0.8c0.9,0.3,1.6,0.7,2.2,1.1c0.6,0.5,1,1,1.3,1.7c0.3,0.7,0.4,1.6,0.4,2.6v0.4
			c0,0.8-0.2,1.5-0.5,2.1s-0.8,1.3-1.5,1.8c-0.6,0.5-1.5,0.9-2.4,1.2c-1,0.3-2,0.5-3.2,0.5c-1.6,0-3.1-0.2-4.6-0.6
			c-1.4-0.4-2.6-1-3.5-1.8l2-3.4c0.9,0.6,1.8,1.1,2.8,1.4C340.5-1156.4,341.6-1156.3,342.8-1156.3z"/>
	</g>
</g>
<g class="st1">
	<g class="st2">
		<path class="st4" d="M233.5,320v-13.3l-3.7,1.6v-2.2l4-1.8h1.9V320H233.5L233.5,320z"/>
		<path class="st4" d="M243.8,320h-2.5v-2.7h2.5V320z"/>
		<path class="st4" d="M253.3,307.8c0-1.6,0.5-2.9,1.5-3.7c0.8-0.7,1.9-1.1,3.3-1.1c1.3,0,2.4,0.4,3.2,1.1c0.3,0.2,0.5,0.5,0.7,0.8
			h4.1v-1.8h2.2v10.5H266v-2.9h-4.1c-0.2,0.3-0.4,0.5-0.7,0.7c-0.8,0.7-1.9,1.1-3.2,1.1c-1.3,0-2.4-0.4-3.3-1.1
			C253.8,310.6,253.3,309.4,253.3,307.8z M261.5,321.7c-2.1,0-4.1-0.3-5.5-1.1c-1-0.6-1.6-1.5-1.6-2.7s0.6-2.1,1.6-2.7
			c1.4-0.8,3.4-1.1,5.5-1.1c2.1,0,4.2,0.3,5.5,1.1c1,0.6,1.6,1.5,1.6,2.7s-0.6,2.1-1.6,2.7C265.6,321.4,263.6,321.7,261.5,321.7z
			 M255.4,307.8c0,1,0.3,1.7,0.8,2.2c0.4,0.4,1.1,0.7,1.8,0.7c0.7,0,1.3-0.2,1.8-0.7c0.5-0.5,0.8-1.3,0.8-2.2c0-1-0.3-1.7-0.8-2.3
			c-0.5-0.4-1.1-0.7-1.8-0.7c-0.8,0-1.4,0.2-1.8,0.7C255.7,306,255.4,306.8,255.4,307.8z M261.5,315.8c-1.6,0-3.2,0.2-4.2,0.8
			c-0.5,0.3-0.8,0.7-0.8,1.2s0.3,0.9,0.8,1.2c0.9,0.6,2.5,0.8,4.2,0.8c1.7,0,3.3-0.2,4.2-0.8c0.5-0.3,0.8-0.7,0.8-1.2
			s-0.3-0.9-0.8-1.2C264.7,316,263.1,315.8,261.5,315.8z M262.6,306.7c0.1,0.3,0.1,0.7,0.1,1.1c0,0.4,0,0.8-0.1,1.1h3.4v-2.2
			L262.6,306.7L262.6,306.7z"/>
		<path class="st4" d="M272.1,314.1v-1.9h16.3v1.9h-6.9v3.4h-2.2v-3.4H272.1z M287.3,303.3v6.9h-14v-6.9H287.3z M275.5,316v3.4h12.1
			v1.9h-14.3V316H275.5z M275.5,308.4h9.6v-3.2h-9.6V308.4z"/>
		<path class="st4" d="M302.8,318.3c2.2,0,3.5-1.3,3.6-3.4h2.3c-0.2,3.2-2.3,5.5-5.9,5.5c-5,0-6.1-3.9-6.1-8.1
			c0-4.2,1.2-8.1,6.1-8.1c3.6,0,5.7,2.2,5.9,5.5h-2.3c-0.1-2.1-1.4-3.4-3.6-3.4c-3,0-3.8,2.3-3.8,6.1
			C299,316,299.9,318.3,302.8,318.3z"/>
		<path class="st4" d="M311.4,321.5c0.9,0,1.3-0.5,1.3-1.5h-1.2v-2.6h2.5v2.8c0,1.4-0.9,2.3-2.5,2.4L311.4,321.5L311.4,321.5z"/>
		<path class="st4" d="M322.2,320.3c-3.4,0-5.4-1.9-5.4-4.6v-0.3h2.3v0.4c0,1.5,1.2,2.6,3.1,2.6c1.9,0,3.1-1,3.1-2.6
			c0-1.3-0.8-2.2-2.5-2.5l-2-0.4c-2.5-0.5-4-1.9-4-4.3c0-2.4,1.8-4.4,5.1-4.4c3.4,0,5.1,2,5.1,4.4v0.2h-2.3v-0.2
			c0-1.4-1-2.3-2.8-2.3c-1.8,0-2.8,1-2.8,2.3c0,1.3,0.8,2,2.4,2.3l2,0.4c2.6,0.6,4.1,2,4.1,4.5C327.6,318.4,325.6,320.3,322.2,320.3
			z"/>
		<path class="st4" d="M350.9,303.1v18.1h-2.2v-2.1c-0.8,0.7-2.4,1-4.4,1h-8.4v-1.9h9c1.6,0,3-0.2,3.9-0.9v-14.3L350.9,303.1
			L350.9,303.1z M336.5,308.9c0-2,0.6-3.6,1.7-4.6c0.8-0.7,2-1.1,3.3-1.1s2.4,0.4,3.3,1.1c1.2,1,1.7,2.6,1.7,4.6s-0.5,3.6-1.7,4.6
			c-0.8,0.7-2,1.1-3.3,1.1s-2.4-0.4-3.3-1.1C337.1,312.4,336.5,310.9,336.5,308.9z M338.7,308.9c0,1.4,0.3,2.5,1,3.1
			c0.5,0.4,1.1,0.7,1.8,0.7c0.8,0,1.4-0.2,1.8-0.7c0.7-0.6,1-1.7,1-3.1c0-1.3-0.3-2.5-1-3.1c-0.4-0.4-1.1-0.6-1.8-0.6
			c-0.7,0-1.4,0.2-1.8,0.6C339,306.4,338.7,307.5,338.7,308.9z"/>
		<path class="st4" d="M370.9,306.1h-10.2v-1.8h4.1v-1.7h2.2v1.7h3.9L370.9,306.1L370.9,306.1z M361.2,310.4c0-1.1,0.5-1.9,1.3-2.5
			c0.8-0.6,2-0.9,3.3-0.9c1.3,0,2.5,0.3,3.3,0.9s1.3,1.4,1.3,2.5c0,1.1-0.5,1.9-1.3,2.5c-0.8,0.6-2,0.9-3.3,0.9
			c-1.4,0-2.6-0.3-3.4-0.9C361.7,312.2,361.2,311.5,361.2,310.4z M362.2,318.3c0-1.1,0.5-1.8,1.4-2.4c1.3-0.8,3.3-1,5.7-1
			c2.4,0,4.5,0.3,5.7,1c0.9,0.5,1.4,1.3,1.4,2.4c0,1.1-0.5,1.8-1.4,2.4c-1.3,0.8-3.3,1-5.7,1s-4.4-0.3-5.7-1
			C362.7,320.1,362.2,319.3,362.2,318.3z M363.3,310.4c0,0.5,0.2,0.9,0.6,1.1c0.5,0.3,1.1,0.5,1.9,0.5c0.8,0,1.5-0.2,2-0.6
			c0.3-0.3,0.5-0.6,0.5-1.1s-0.2-0.9-0.6-1.1c-0.5-0.4-1.2-0.5-1.9-0.5c-0.8,0-1.5,0.2-1.9,0.5C363.6,309.5,363.3,310,363.3,310.4z
			 M364.3,318.3c0,0.4,0.2,0.7,0.6,0.9c0.8,0.5,2.4,0.7,4.3,0.7c2,0,3.5-0.2,4.3-0.7c0.4-0.2,0.6-0.5,0.6-0.9s-0.2-0.7-0.6-0.9
			c-0.8-0.5-2.3-0.7-4.3-0.7c-2,0-3.5,0.2-4.3,0.7C364.6,317.6,364.3,317.9,364.3,318.3z M371,308.8V307h2.8v-3.9h2.2v11.2h-2.2v-2
			H371v-1.8h2.8v-1.7H371L371,308.8z"/>
		<path class="st4" d="M385.4,320h-4.9v-16.6h6.6v1.9h-4.4v5.3h4.2v1.9h-4.2v5.6h3.2c1.5,0,2.6-0.3,3.3-0.9v-14h2.1v7.1h2v-7.2h2.1
			v18.1h-2.1v-9h-2v8.8h-2.1v-2C388.5,319.7,387.2,320,385.4,320z"/>
		<path class="st4" d="M404.5,311.8h6.8v1.9h-6.8V311.8z"/>
		<path class="st4" d="M424.7,302.1v1.9c-1.9,0-2.8,1-2.8,8.2c0,7.2,0.9,8.2,2.8,8.2v1.9c-3.3,0-5-1.6-5-10.2
			C419.8,303.8,421.4,302.1,424.7,302.1z"/>
		<path class="st4" d="M432.3,318.3c2.2,0,3.5-1.3,3.6-3.4h2.3c-0.2,3.2-2.3,5.5-5.9,5.5c-5,0-6.1-3.9-6.1-8.1
			c0-4.2,1.2-8.1,6.1-8.1c3.6,0,5.7,2.2,5.9,5.5h-2.3c-0.1-2.1-1.4-3.4-3.6-3.4c-3,0-3.8,2.3-3.8,6.1
			C428.5,316,429.3,318.3,432.3,318.3z"/>
		<path class="st4" d="M443.7,320.1l-4.3-11.2h2.3l3.1,8.5l3-8.5h2.3l-5.1,13.7c-0.7,2-1.7,2.4-3.4,2.4c-0.3,0-0.7,0-0.9,0v-1.8h0.7
			c0.7,0,1.2-0.2,1.6-1.3L443.7,320.1z"/>
		<path class="st4" d="M453.9,310.6c0.4-1.2,1.6-2,3.2-2c2.8,0,4.5,1.8,4.5,5.9s-1.7,5.9-4.5,5.9c-1.6,0-2.8-0.8-3.2-2v1.7h-2.2
			v-15.7h2.2V310.6z M456.6,318.5c2.1,0,2.7-1.5,2.7-4c0-2.5-0.7-4-2.7-4s-2.7,1.6-2.7,4C453.9,316.9,454.6,318.5,456.6,318.5z"/>
		<path class="st4" d="M465.5,315.1c0.1,2.1,0.9,3.3,2.8,3.3c1.4,0,2.2-0.7,2.4-1.8h2.3c-0.4,2.3-2,3.6-4.7,3.6c-3.4,0-5-2.1-5-5.9
			c0-3.7,1.6-5.9,5-5.9c3.3,0,4.9,2.1,4.9,5.9c0,0.2,0,0.5,0,0.7H465.5z M465.5,313.5h5.4c-0.2-1.9-0.9-3-2.7-3
			C466.4,310.4,465.7,311.6,465.5,313.5z"/>
		<path class="st4" d="M477.4,314.3v5.7h-2.2v-11.2h2.2v1.9c0.5-1.4,1.4-2.1,3.1-2.1c0.3,0,0.7,0,0.9,0.1l0,1.8c-0.2,0-0.5,0-0.9,0
			C478.6,310.4,477.4,311.8,477.4,314.3z"/>
		<path class="st4" d="M494,320.3c-3.4,0-5.4-1.9-5.4-4.6v-0.3h2.3v0.4c0,1.5,1.2,2.6,3.1,2.6c1.9,0,3.1-1,3.1-2.6
			c0-1.3-0.8-2.2-2.5-2.5l-2-0.4c-2.5-0.5-4-1.9-4-4.3c0-2.4,1.8-4.4,5.1-4.4c3.4,0,5.1,2,5.1,4.4v0.2h-2.3v-0.2
			c0-1.4-1-2.3-2.8-2.3c-1.8,0-2.8,1-2.8,2.3c0,1.3,0.8,2,2.4,2.3l2,0.4c2.6,0.6,4.1,2,4.1,4.5C499.4,318.4,497.4,320.3,494,320.3z"
			/>
		<path class="st4" d="M501.5,306.7v-2.4h2.2v2.4H501.5z M501.5,320v-11.2h2.2V320H501.5z"/>
		<path class="st4" d="M508.4,310.6c0.4-1.2,1.6-2,3.2-2c2.8,0,4.5,1.8,4.5,5.9s-1.7,5.9-4.5,5.9c-1.6,0-2.8-0.8-3.2-2v1.7h-2.2
			v-15.7h2.2V310.6z M511.1,318.5c2.1,0,2.7-1.5,2.7-4c0-2.5-0.7-4-2.7-4s-2.7,1.6-2.7,4C508.4,316.9,509.1,318.5,511.1,318.5z"/>
		<path class="st4" d="M518.2,320v-15.7h2.2V320H518.2z"/>
		<path class="st4" d="M523,306.7v-2.4h2.2v2.4H523z M523,320v-11.2h2.2V320H523z"/>
		<path class="st4" d="M537.2,320H535v-6.8c0-1.9-0.8-2.8-2.2-2.8c-1.6,0-2.8,1.3-2.8,3.6v6.1h-2.2v-11.2h2.2v1.9
			c0.5-1.3,1.7-2.1,3.4-2.1c2.5,0,3.9,1.6,3.9,4.5L537.2,320L537.2,320z"/>
		<path class="st4" d="M549.1,308.9v11.6c0,2.7-1.4,4.8-4.7,4.8c-2.7,0-4.3-1.3-4.6-3.4h2.3c0.2,1.1,1,1.7,2.4,1.7
			c1.7,0,2.5-1,2.5-2.8v-2.3c-0.4,1.2-1.6,2-3.2,2c-2.8,0-4.5-1.8-4.5-5.9s1.7-5.9,4.5-5.9c1.6,0,2.8,0.8,3.2,2v-1.7L549.1,308.9
			L549.1,308.9z M544.2,310.4c-2.1,0-2.8,1.6-2.8,4c0,2.5,0.7,4,2.8,4c2.1,0,2.7-1.5,2.7-4C546.9,312,546.2,310.4,544.2,310.4z"/>
		<path class="st4" d="M559.6,311.9v0.3h-2.2v-0.3c0-0.8-0.7-1.5-2-1.5c-1.3,0-2,0.7-2,1.5c0,1.2,1,1.2,3.1,1.7
			c2.4,0.4,3.5,1.5,3.5,3.4c0,1.9-1.7,3.4-4.4,3.4c-2.7,0-4.4-1.4-4.4-3.4v-0.3h2.2v0.3c0,1,0.9,1.6,2.2,1.6c1.3,0,2.2-0.6,2.2-1.6
			c0-1.3-1-1.4-3.1-1.9c-2.4-0.4-3.5-1.4-3.5-3.3c0-1.9,1.5-3.3,4.2-3.3C558,308.6,559.6,309.9,559.6,311.9z"/>
		<path class="st4" d="M561.2,322.5v-1.9c1.9,0,2.8-1,2.8-8.2c0-7.2-0.9-8.2-2.8-8.2v-1.9c3.4,0,5,1.6,5,10.1
			C566.2,320.8,564.6,322.5,561.2,322.5z"/>
		<path class="st4" d="M236.6,336.5l-4.9,5.6h6.6v1.9h-9.6v-1.8l6.1-6.9c0.8-0.9,1.1-1.6,1.1-2.5c0-1.6-1.1-2.8-2.6-2.8
			c-1.6,0-2.6,1.1-2.6,2.8v0.4h-2.3v-0.4c0-2.6,1.7-4.7,4.8-4.7s4.8,2.1,4.8,4.7C238.1,334.3,237.8,335.2,236.6,336.5z"/>
		<path class="st4" d="M243.8,344h-2.5v-2.7h2.5V344z"/>
		<path class="st4" d="M263.1,327.4v10.2h-3.4v4.7h2.4c1.6,0,3-0.2,3.9-0.9v-14.3h2.2v18.1H266v-2.1c-0.8,0.7-2.4,1-4.4,1h-8.4v-1.9
			h4.4v-4.7h-3.6v-10.2H263.1z M256,335.7h4.9v-6.4H256V335.7z"/>
		<path class="st4" d="M275,333.9h4.4v-6.4h2.2V344h-8.8v-16.6h2.2V333.9L275,333.9z M279.5,342.1v-6.4H275v6.4H279.5z M287.4,327.1
			v18.1h-2.2v-18.1H287.4z"/>
		<path class="st4" d="M291.4,340.7v-1.9h16.1v1.9h-7v4.9h-2.2v-4.9H291.4z M292,331.8c0-1.6,0.7-2.8,1.9-3.6
			c1.4-0.9,3.2-1.2,5.6-1.2c2.4,0,4.2,0.3,5.6,1.2c1.2,0.7,1.9,2,1.9,3.6s-0.7,2.8-1.9,3.5c-1.4,0.9-3.2,1.2-5.6,1.2
			c-2.4,0-4.2-0.3-5.6-1.2C292.7,334.6,292,333.4,292,331.8z M294.2,331.8c0,0.8,0.3,1.5,0.9,1.9c0.9,0.6,2.3,0.9,4.4,0.9
			c2.1,0,3.5-0.2,4.4-0.9c0.6-0.4,1-1.1,1-1.9c0-0.8-0.3-1.5-1-2c-0.9-0.6-2.3-0.8-4.4-0.8c-2.1,0-3.6,0.2-4.4,0.8
			C294.5,330.3,294.2,331,294.2,331.8z"/>
		<path class="st4" d="M310.6,344.5v-1.9h16.1v1.9H310.6z M318.7,333.4c-1.2,2.1-3.8,4.1-7.7,4.9v-1.9c4.1-0.9,6.6-3.5,6.6-7.5v-1.5
			h2.2v1.5c0,4,2.6,6.5,6.7,7.5v1.9C322.5,337.5,319.9,335.5,318.7,333.4z"/>
		<path class="st4" d="M344.9,327.1v18.1h-2.2v-2.1c-0.8,0.7-2.4,1-4.4,1h-8.4v-1.9h9c1.6,0,3-0.2,3.9-0.9v-14.3L344.9,327.1
			L344.9,327.1z M330.5,332.9c0-2,0.6-3.6,1.7-4.6c0.8-0.7,2-1.1,3.3-1.1s2.4,0.4,3.3,1.1c1.2,1,1.7,2.6,1.7,4.6s-0.5,3.6-1.7,4.6
			c-0.8,0.7-2,1.1-3.3,1.1s-2.4-0.4-3.3-1.1C331.1,336.4,330.5,334.9,330.5,332.9z M332.7,332.9c0,1.4,0.3,2.5,1,3.1
			c0.5,0.4,1.1,0.7,1.8,0.7c0.8,0,1.4-0.2,1.8-0.7c0.7-0.6,1-1.7,1-3.1c0-1.3-0.3-2.5-1-3.1c-0.4-0.4-1.1-0.6-1.8-0.6
			c-0.7,0-1.4,0.2-1.8,0.6C333,330.4,332.7,331.5,332.7,332.9z"/>
		<path class="st4" d="M356.6,329.4v12.8h1.8c1.7,0,3-0.4,3.8-1v-14h2.2v18.1h-2.2v-2.4c-0.7,0.7-2.3,1.1-4.2,1.1h-8.7v-16.6h10.4
			v1.9L356.6,329.4L356.6,329.4z M354.5,342.1v-12.8h-3v12.8H354.5z"/>
		<path class="st4" d="M384.1,330.1h-10.2v-1.8h4.1v-1.7h2.2v1.7h3.9V330.1z M374.4,334.4c0-1.1,0.5-1.9,1.3-2.5
			c0.8-0.6,2-0.9,3.3-0.9c1.3,0,2.5,0.3,3.3,0.9s1.3,1.4,1.3,2.5c0,1.1-0.5,1.9-1.3,2.5c-0.8,0.6-2,0.9-3.3,0.9
			c-1.4,0-2.6-0.3-3.4-0.9C374.9,336.2,374.4,335.5,374.4,334.4z M375.4,342.3c0-1.1,0.5-1.8,1.4-2.4c1.3-0.8,3.3-1,5.7-1
			c2.4,0,4.5,0.3,5.7,1c0.9,0.5,1.4,1.3,1.4,2.4c0,1.1-0.5,1.8-1.4,2.4c-1.3,0.8-3.3,1-5.7,1s-4.4-0.3-5.7-1
			C375.9,344.1,375.4,343.3,375.4,342.3z M376.5,334.4c0,0.5,0.2,0.9,0.6,1.1c0.5,0.3,1.1,0.5,1.9,0.5c0.8,0,1.5-0.2,2-0.6
			c0.3-0.3,0.5-0.6,0.5-1.1s-0.2-0.9-0.6-1.1c-0.5-0.4-1.2-0.5-1.9-0.5c-0.8,0-1.5,0.2-1.9,0.5C376.8,333.5,376.5,334,376.5,334.4z
			 M377.6,342.3c0,0.4,0.2,0.7,0.6,0.9c0.8,0.5,2.4,0.7,4.3,0.7c2,0,3.5-0.2,4.3-0.7c0.4-0.2,0.6-0.5,0.6-0.9s-0.2-0.7-0.6-0.9
			c-0.8-0.5-2.3-0.7-4.3-0.7c-2,0-3.5,0.2-4.3,0.7C377.8,341.6,377.6,341.9,377.6,342.3z M384.2,332.8V331h2.8v-3.9h2.2v11.2H387v-2
			h-2.8v-1.8h2.8v-1.7H384.2L384.2,332.8z"/>
		<path class="st4" d="M398.7,344h-4.9v-16.6h6.6v1.9h-4.4v5.3h4.2v1.9h-4.2v5.6h3.2c1.5,0,2.6-0.3,3.3-0.9v-14h2.1v7.1h2v-7.2h2.1
			v18.1h-2.1v-9h-2v8.8h-2.1v-2C401.7,343.7,400.4,344,398.7,344z"/>
		<path class="st4" d="M417.7,335.8h6.8v1.9h-6.8V335.8z"/>
		<path class="st4" d="M438,326.1v1.9c-1.9,0-2.8,1-2.8,8.2c0,7.2,0.9,8.2,2.8,8.2v1.9c-3.3,0-5-1.6-5-10.2
			C433,327.8,434.6,326.1,438,326.1z"/>
		<path class="st4" d="M439.9,340.7v-1.9H456v1.9h-7v4.9h-2.2v-4.9H439.9z M455.1,327.3v8.8h-14.2v-8.8H455.1z M443,334.2h9.9v-5
			H443V334.2z"/>
		<path class="st4" d="M469.1,330.4h-10.3v-1.8h4.1v-2h2.2v2h4V330.4z M459.3,335.2c0-1.2,0.5-2.1,1.4-2.7c0.8-0.6,2-1,3.3-1
			c1.3,0,2.4,0.3,3.2,0.9c0.9,0.6,1.4,1.6,1.4,2.8c0,1.2-0.6,2.2-1.5,2.8c-0.8,0.5-1.9,0.8-3.1,0.8c-1.3,0-2.4-0.3-3.2-0.9
			C459.8,337.3,459.3,336.4,459.3,335.2z M462.6,340v3.5h11.6v1.9h-13.7V340H462.6z M461.4,335.2c0,0.5,0.2,0.9,0.6,1.3
			c0.5,0.4,1.2,0.7,2,0.7c0.7,0,1.4-0.2,1.8-0.6c0.4-0.3,0.7-0.8,0.7-1.4c0-0.6-0.2-1-0.7-1.4c-0.5-0.4-1.1-0.6-1.9-0.6
			c-0.8,0-1.4,0.2-1.9,0.6C461.6,334.2,461.4,334.6,461.4,335.2z M473.8,327.1v5.2h2.6v1.9h-2.6v6.2h-2.2v-13.2H473.8L473.8,327.1z"
			/>
		<path class="st4" d="M488.3,330.4h-10.3v-1.8h4.1v-2h2.2v2h4V330.4z M478.5,335.2c0-1.2,0.5-2.1,1.4-2.7c0.8-0.6,2-1,3.3-1
			c1.3,0,2.4,0.3,3.2,0.9c0.9,0.6,1.4,1.6,1.4,2.8c0,1.2-0.6,2.2-1.5,2.8c-0.8,0.5-1.9,0.8-3.1,0.8c-1.3,0-2.4-0.3-3.2-0.9
			C479,337.3,478.5,336.4,478.5,335.2z M481.8,340v3.5h11.6v1.9h-13.7V340H481.8z M480.6,335.2c0,0.5,0.2,0.9,0.6,1.3
			c0.5,0.4,1.2,0.7,2,0.7c0.7,0,1.4-0.2,1.8-0.6c0.4-0.3,0.7-0.8,0.7-1.4c0-0.6-0.2-1-0.7-1.4c-0.5-0.4-1.1-0.6-1.9-0.6
			c-0.8,0-1.4,0.2-1.9,0.6C480.8,334.2,480.6,334.6,480.6,335.2z M493,327.1v5.2h2.6v1.9H493v6.2h-2.2v-13.2H493L493,327.1z"/>
		<path class="st4" d="M504.6,331.4v-2H498v-1.9h8.8v3.7c0,6.9-2.6,11.5-8.9,13.1v-2.1C502.6,340.8,504.6,337,504.6,331.4z
			 M512.2,327.1v7.4h2.8v1.9h-2.8v8.8H510v-18.1H512.2z"/>
		<path class="st4" d="M517.1,331.3v-1.9h3.8v-2.8h2.2v2.8h3.8v1.9h-3.8v2.9c0,4.8,1.9,6.8,4,7.8v2c-2.3-0.8-4.2-2.5-5.1-4.5
			c-0.9,1.9-2.9,3.7-5.1,4.5v-2c2.1-1,4-3,4-7.8v-2.9H517.1z M531.8,327.1v18.1h-2.2v-18.1H531.8z"/>
		<path class="st4" d="M536.1,345.5c0.9,0,1.3-0.5,1.3-1.5h-1.2v-2.6h2.5v2.8c0,1.4-0.9,2.3-2.5,2.4L536.1,345.5L536.1,345.5z"/>
		<path class="st4" d="M557.3,327.4V344h-8.8v-16.6H557.3z M550.7,342.1h4.4v-12.8h-4.4V342.1z M563,327.1v18.1h-2.2v-18.1H563z"/>
		<path class="st4" d="M572.5,344h-4.9v-9.3h4.4v-5.3h-4.4v-1.9h6.5v9.2h-4.4v5.5h3.2c1.5,0,2.6-0.3,3.3-0.9v-14h2.1v7.1h2v-7.2h2.1
			v18.1h-2.1v-9h-2v8.8h-2.1v-2C575.5,343.7,574.2,344,572.5,344z"/>
		<path class="st4" d="M586.7,329.4v-1.9h9.8v1.9h-3.8v4.9c0,4.8,1.9,6.8,4,7.8v2c-2.3-0.8-4.2-2.5-5.1-4.5
			c-0.9,1.9-2.9,3.7-5.1,4.5v-2c2.1-1,4-3,4-7.8v-4.9H586.7z M601.4,327.1v18.1h-2.2v-18.1H601.4z"/>
		<path class="st4" d="M615.4,330.1h-10.3v-1.8h4.1v-1.7h2.2v1.7h4V330.1z M605.7,334.4c0-1.1,0.5-1.9,1.3-2.5
			c0.8-0.6,2-0.9,3.3-0.9c1.4,0,2.5,0.3,3.3,0.9c0.8,0.6,1.3,1.4,1.3,2.5c0,1.1-0.5,1.9-1.3,2.5c-0.8,0.6-2,0.9-3.3,0.9
			c-1.4,0-2.6-0.3-3.4-0.9C606.1,336.2,605.7,335.5,605.7,334.4z M606.5,342.3c0-1.2,0.6-2,1.6-2.5c1.3-0.7,3.2-0.9,5.4-0.9
			s4.1,0.2,5.4,0.9c1,0.5,1.6,1.3,1.6,2.5c0,1.2-0.6,1.9-1.6,2.5c-1.3,0.7-3.2,0.9-5.4,0.9s-4.1-0.2-5.4-0.9
			C607.2,344.2,606.5,343.4,606.5,342.3z M607.8,334.4c0,0.5,0.2,0.9,0.6,1.1c0.5,0.3,1.1,0.5,1.9,0.5c0.8,0,1.5-0.2,2-0.6
			c0.3-0.3,0.5-0.6,0.5-1.1s-0.2-0.9-0.6-1.1c-0.5-0.4-1.2-0.5-2-0.5c-0.8,0-1.4,0.2-1.9,0.5C608,333.5,607.8,334,607.8,334.4z
			 M608.7,342.3c0,0.4,0.2,0.7,0.6,0.9c0.8,0.4,2.4,0.6,4.2,0.6c1.8,0,3.4-0.2,4.2-0.6c0.4-0.3,0.6-0.5,0.6-0.9s-0.2-0.7-0.6-0.9
			c-0.8-0.5-2.4-0.6-4.2-0.6s-3.4,0.2-4.2,0.6C609,341.6,608.7,341.9,608.7,342.3z M620.2,329.8h2.5v1.9h-2.5v2.2h2.5v1.9h-2.5v2.5
			H618v-11.2h2.2V329.8z"/>
		<path class="st4" d="M625.2,329.2v-1.9h9.4v1.9h-3.6v0.9c0,3.1,1.7,4.5,3.9,5v1.9c-2.2-0.4-4-1.5-5-3.1c-0.9,1.6-2.8,2.9-5,3.3v-2
			c2.3-0.5,3.9-2.1,3.9-5.2v-0.9L625.2,329.2L625.2,329.2z M637.7,345.5v-4.9h-11.6v-1.9h13.8v6.8H637.7z M639.8,337.6h-2.2v-4.7
			h-3.7V331h3.7v-3.9h2.2V337.6z"/>
		<path class="st4" d="M644.1,345.5c0.9,0,1.3-0.5,1.3-1.5h-1.2v-2.6h2.5v2.8c0,1.4-0.9,2.3-2.5,2.4L644.1,345.5L644.1,345.5z"/>
		<path class="st4" d="M661.9,327.2v2.2c0,3.1,1.7,4.8,4.1,5.5v1.9c-2.3-0.5-4.2-1.8-5.1-3.3c-0.9,1.6-2.8,2.9-5.1,3.5v-1.9
			c2.4-0.8,4-2.6,4-5.7v-2.2H661.9L661.9,327.2z M664.3,345.7c-2.1,0-4.1-0.3-5.5-1.1c-1-0.6-1.6-1.5-1.6-2.7s0.6-2.1,1.6-2.7
			c1.4-0.8,3.4-1.1,5.5-1.1s4.2,0.3,5.5,1.1c1,0.6,1.6,1.5,1.6,2.7s-0.6,2.1-1.6,2.7C668.5,345.4,666.4,345.7,664.3,345.7z
			 M664.3,339.8c-1.6,0-3.2,0.2-4.2,0.8c-0.5,0.3-0.8,0.7-0.8,1.2s0.3,0.9,0.8,1.2c0.9,0.6,2.5,0.8,4.2,0.8c1.7,0,3.3-0.2,4.2-0.8
			c0.5-0.3,0.8-0.7,0.8-1.2s-0.3-0.9-0.8-1.2C667.6,340,666,339.8,664.3,339.8z M671,337.5h-2.2v-5.2h-4v-1.9h4v-3.3h2.2V337.5z"/>
		<path class="st4" d="M675,336.9V335h5.5v-3.7h2.2v3.7h8.6v1.9H675z M675.8,342.2c0-1.2,0.6-2,1.6-2.6c1.3-0.7,3.4-1,5.7-1
			c2.3,0,4.4,0.3,5.7,1c1,0.6,1.6,1.4,1.6,2.6s-0.6,2-1.6,2.6c-1.3,0.7-3.4,1-5.7,1c-2.3,0-4.4-0.3-5.7-1
			C676.4,344.2,675.8,343.4,675.8,342.2z M687.9,330.9v-1.6H676v-1.9h14.1v3.4c0,1-0.1,2.2-0.3,3h-2.1
			C687.9,332.9,687.9,331.8,687.9,330.9z M678,342.2c0,0.4,0.2,0.8,0.7,1c0.8,0.5,2.4,0.7,4.5,0.7c2.1,0,3.6-0.2,4.5-0.7
			c0.4-0.3,0.7-0.6,0.7-1c0-0.5-0.3-0.8-0.7-1.1c-0.8-0.5-2.4-0.7-4.5-0.7c-2.1,0-3.6,0.2-4.5,0.7C678.2,341.4,678,341.8,678,342.2z
			"/>
		<path class="st4" d="M694.8,329.2v-1.9h9.4v1.9h-3.6v0.9c0,3.1,1.7,4.5,3.9,5v1.9c-2.2-0.4-4-1.5-5-3.1c-0.9,1.6-2.8,2.9-5,3.3v-2
			c2.3-0.5,3.9-2.1,3.9-5.2v-0.9L694.8,329.2L694.8,329.2z M707.2,345.5v-4.9h-11.6v-1.9h13.8v6.8H707.2z M709.4,337.6h-2.2v-4.7
			h-3.7V331h3.7v-3.9h2.2V337.6z"/>
		<path class="st4" d="M713.7,332.2c0-1.8,0.6-3.3,1.5-4.1c0.8-0.7,1.9-1.1,3.2-1.1c1.3,0,2.4,0.4,3.2,1.1c1,0.9,1.5,2.3,1.5,4.1
			c0,1.9-0.5,3.3-1.5,4.2c-0.8,0.7-1.9,1.1-3.2,1.1c-1.3,0-2.4-0.4-3.2-1.1C714.3,335.5,713.7,334.1,713.7,332.2z M728.9,345.3
			h-13.9v-6.2h2.2v4.3h11.7V345.3z M715.8,332.2c0,1.2,0.3,2.1,0.9,2.7c0.4,0.4,1,0.7,1.8,0.7c0.7,0,1.3-0.2,1.8-0.7
			c0.5-0.6,0.8-1.5,0.8-2.7c0-1.2-0.3-2.1-0.8-2.7c-0.5-0.4-1.1-0.7-1.8-0.7s-1.3,0.2-1.8,0.7C716.1,330.1,715.8,331,715.8,332.2z
			 M728.6,339.8h-2.2v-12.7h2.2V339.8z"/>
		<path class="st4" d="M741.3,333.9h4.4v-6.4h2.2V344h-8.8v-16.6h2.2L741.3,333.9L741.3,333.9z M745.7,342.1v-6.4h-4.4v6.4H745.7z
			 M753.6,327.1v18.1h-2.2v-18.1H753.6z"/>
		<path class="st4" d="M758.2,329.2v-1.9h9.4v1.9h-3.6v1.6c0,3.1,1.7,4.5,3.9,5v1.9c-2.2-0.4-4-1.5-5-3.1c-0.9,1.6-2.8,2.9-5,3.3
			v-1.9c2.3-0.5,3.9-2.1,3.9-5.3v-1.6H758.2z M773.2,345.3h-13.9v-6.2h2.2v4.3h11.7V345.3z M772.8,339.8h-2.2v-6.6h-3.7v-1.9h3.7
			v-4.2h2.2V339.8z"/>
		<path class="st4" d="M777.1,345.5c0.9,0,1.3-0.5,1.3-1.5h-1.2v-2.6h2.5v2.8c0,1.4-0.9,2.3-2.5,2.4L777.1,345.5L777.1,345.5z"/>
		<path class="st4" d="M789.1,332.2c0-1.8,0.5-3.2,1.5-4.1c0.8-0.8,1.9-1.1,3.3-1.1c1.3,0,2.4,0.4,3.2,1.1c0.3,0.3,0.5,0.6,0.7,0.9
			h4v-2h2.2v12.7h-2.2v-4.5h-4c-0.2,0.4-0.5,0.8-0.8,1.1c-0.8,0.7-1.9,1.1-3.2,1.1c-1.4,0-2.5-0.4-3.3-1.1
			C789.7,335.5,789.1,334.1,789.1,332.2z M804.3,345.3h-13.9v-6.2h2.2v4.3h11.7V345.3z M791.2,332.2c0,1.2,0.3,2.1,0.9,2.7
			c0.4,0.4,1,0.7,1.8,0.7c0.7,0,1.3-0.2,1.8-0.7c0.5-0.6,0.8-1.5,0.8-2.7c0-1.2-0.3-2.1-0.8-2.7c-0.4-0.4-1-0.7-1.8-0.7
			c-0.8,0-1.3,0.2-1.8,0.7C791.5,330.1,791.2,331,791.2,332.2z M798.5,331c0.1,0.4,0.1,0.8,0.1,1.3c0,0.4,0,0.8-0.1,1.2h3.4V331
			H798.5z"/>
		<path class="st4" d="M815,329.2h-6.4v-1.9h8.6v1.5h3.9v-1.7h2.2v8.9H821v-1.8h-4.4v-1.8h4.4v-1.7h-4.1c-0.9,3.6-4.1,5-8.8,5.4
			v-1.9C812.3,333.8,815,332.2,815,329.2z M811.8,342.1v1.6h11.6v1.8h-13.8v-5.1H821v-1.6h-11.4V337h13.6v5.1H811.8L811.8,342.1z"/>
		<path class="st4" d="M826.1,346.5v-1.9c1.9,0,2.8-1,2.8-8.2c0-7.2-0.9-8.2-2.8-8.2v-1.9c3.4,0,5,1.6,5,10.1
			C831.1,344.8,829.5,346.5,826.1,346.5z"/>
		<path class="st4" d="M233.4,360.7h-1.6v-1.9h1.6c1.4,0,2.3-1,2.3-2.3c0-1.4-1-2.4-2.3-2.4c-1.4,0-2.3,0.9-2.3,2.4v0.2h-2.3v-0.3
			c0-2.4,1.7-4.1,4.6-4.1c2.9,0,4.6,1.8,4.6,4.1c0,1.6-0.9,3-2.4,3.5c1.7,0.5,2.8,1.9,2.8,4c0,2.8-2.1,4.6-5,4.6
			c-2.9,0-5.1-1.8-5.1-4.7v-0.2h2.3v0.1c0,1.8,1.2,2.9,2.8,2.9c1.6,0,2.8-1,2.8-2.8C236.1,361.8,235,360.7,233.4,360.7z"/>
		<path class="st4" d="M243.8,368h-2.5v-2.7h2.5V368z"/>
		<path class="st4" d="M253,364.7v-1.9h16.1v1.9h-7v4.9H260v-4.9H253z M268.2,353.2h-12v5h12.2v1.9H254v-8.8h14.2L268.2,353.2
			L268.2,353.2z"/>
		<path class="st4" d="M272.2,368.5v-1.9h6.9v-5.5h2.2v5.5h7v1.9H272.2z M287.4,353.4h-6.1v0.4c0,3.6,2.8,5.5,6.2,6.2v1.9
			c-3.3-0.6-5.9-2.1-7.3-4.2c-1.4,2.1-4.1,3.6-7.3,4.2V360c3.4-0.7,6.2-2.7,6.2-6.2v-0.4h-6v-1.9h14.2V353.4L287.4,353.4z"/>
		<path class="st4" d="M298.2,353.2h-6.5v-1.9h8.7v1.3c0,5.7-3.4,8.3-9.1,8.9v-1.9C295.6,359.1,298.2,357,298.2,353.2z M292.5,362.8
			h13.6v6.8h-2.2v-4.9h-11.4V362.8z M306.1,351.1v4.3h2.6v1.9h-2.6v4.3h-2.2v-10.5H306.1z"/>
		<path class="st4" d="M311,359.7c0-3.3,0.3-5.7,1.5-7.2c0.7-0.9,1.9-1.4,3.2-1.4c1.4,0,2.5,0.5,3.2,1.4c1.2,1.4,1.5,3.9,1.5,7.2
			s-0.3,5.7-1.5,7.2c-0.8,0.9-1.9,1.4-3.2,1.4c-1.3,0-2.5-0.5-3.2-1.4C311.4,365.4,311,363,311,359.7z M318.3,359.7
			c0-2.9-0.2-5-1-5.9c-0.4-0.5-0.9-0.8-1.6-0.8c-0.6,0-1.2,0.3-1.6,0.8c-0.7,1-0.9,3.1-0.9,5.9s0.2,5,0.9,6c0.4,0.5,0.9,0.7,1.6,0.7
			c0.7,0,1.2-0.3,1.6-0.7C318.1,364.7,318.3,362.6,318.3,359.7z M325.7,351.1v18.1h-2.2v-18.1H325.7z"/>
		<path class="st4" d="M350.8,351.4v10.2h-6v5h6.9v1.9h-16.1v-1.9h7v-5h-6.1v-10.2H350.8z M338.8,359.7h9.9v-6.3h-9.9V359.7z"/>
		<path class="st4" d="M355.3,359.7c0-3.3,0.3-5.7,1.5-7.2c0.7-0.9,1.9-1.4,3.2-1.4c1.4,0,2.5,0.5,3.2,1.4c0.5,0.6,0.9,1.5,1.1,2.6
			h3.5v-4h2.2v18.1h-2.2v-5.4h-3.4c-0.2,1.3-0.6,2.3-1.2,3c-0.8,0.9-1.9,1.4-3.2,1.4c-1.3,0-2.5-0.5-3.2-1.4
			C355.6,365.4,355.3,363,355.3,359.7z M362.5,359.7c0-2.9-0.2-5-1-5.9c-0.4-0.5-0.9-0.8-1.6-0.8c-0.6,0-1.2,0.3-1.6,0.8
			c-0.7,1-0.9,3.1-0.9,5.9s0.2,5,0.9,6c0.4,0.5,0.9,0.7,1.6,0.7c0.7,0,1.2-0.3,1.6-0.7C362.3,364.7,362.5,362.6,362.5,359.7z
			 M364.5,357c0.1,0.8,0.1,1.7,0.1,2.7c0,0.8,0,1.6-0.1,2.3h3.2V357H364.5L364.5,357z"/>
		<path class="st4" d="M383.7,353.2v-2.6h2.2v2.6h4.1v1.9h-10.3v-1.9H383.7z M380.4,362.4c0-2.4,0.6-4.2,1.9-5.2
			c0.7-0.5,1.6-0.8,2.6-0.8c0.9,0,1.7,0.2,2.4,0.6c1.4,0.9,2.1,2.8,2.1,5.3s-0.7,4.4-2.1,5.3c-0.7,0.4-1.5,0.7-2.4,0.7
			c-1,0-1.9-0.3-2.6-0.8C381,366.7,380.4,364.9,380.4,362.4z M382.5,362.4c0,1.7,0.3,2.9,1,3.6c0.4,0.3,0.8,0.5,1.4,0.5
			c0.5,0,1-0.2,1.3-0.5c0.7-0.6,1-1.9,1-3.6c0-1.9-0.4-3.1-1.1-3.7c-0.3-0.3-0.7-0.4-1.2-0.4c-0.6,0-1,0.1-1.3,0.5
			C382.8,359.5,382.5,360.6,382.5,362.4z M394.5,351.1v7.4h2.8v1.9h-2.8v8.8h-2.2v-18.1H394.5z"/>
		<path class="st4" d="M407.3,368h-7.8v-16.7h2.2v14.8h6c1.7,0,3.1-0.4,3.8-1.1v-13.9h2.2v7.4h2.8v1.9h-2.8v8.8h-2.2v-2.4
			C410.8,367.6,409.2,368,407.3,368z"/>
		<path class="st4" d="M425.4,355.4v-2h-6.6v-1.9h8.8v3.7c0,6.9-2.6,11.5-8.9,13.1v-2.1C423.3,364.8,425.4,361,425.4,355.4z
			 M432.9,351.1v7.4h2.8v1.9h-2.8v8.8h-2.2v-18.1H432.9z"/>
		<path class="st4" d="M447.5,353.4h-7v6.4h7.2v1.9h-3.6v4.7h2.4c1.6,0,3-0.2,3.9-0.9v-14.3h2.2v18.1h-2.2v-2.1
			c-0.8,0.7-2.4,1-4.4,1h-8.4v-1.9h4.4v-4.7h-3.6v-10.2h9.2L447.5,353.4L447.5,353.4z"/>
		<path class="st4" d="M456.6,361.9V360h16.3v1.9H456.6z M459.9,351.2v4.4h11.9v1.9h-14.1v-6.3H459.9z M459.9,363.5v3.9H472v1.9
			h-14.3v-5.8H459.9z"/>
		<path class="st4" d="M481.2,359.8h6.8v1.9h-6.8V359.8z"/>
		<path class="st4" d="M501.4,350.1v1.9c-1.9,0-2.8,1-2.8,8.2c0,7.2,0.9,8.2,2.8,8.2v1.9c-3.3,0-5-1.6-5-10.2
			C496.4,351.8,498,350.1,501.4,350.1z"/>
		<path class="st4" d="M510.5,355.4v-2h-6.6v-1.9h8.8v3.7c0,6.9-2.6,11.5-8.9,13.1v-2.1C508.4,364.8,510.5,361,510.5,355.4z
			 M518,351.1v7.4h2.8v1.9H518v8.8h-2.2v-18.1H518z"/>
		<path class="st4" d="M528.4,351.2v2.2c0,3.1,1.7,4.8,4,5.5v1.9c-2.3-0.5-4.2-1.8-5.1-3.3c-0.9,1.6-2.8,2.9-5.1,3.5v-1.9
			c2.4-0.8,4.1-2.6,4.1-5.7v-2.2H528.4L528.4,351.2z M523.6,365.8c0-1.1,0.5-1.9,1.3-2.6c1.3-0.9,3.3-1.3,5.7-1.3
			c2.3,0,4.4,0.4,5.7,1.3c0.8,0.6,1.3,1.5,1.3,2.6c0,1.1-0.5,2-1.3,2.6c-1.3,0.9-3.3,1.3-5.7,1.3c-2.4,0-4.4-0.4-5.7-1.3
			C524.1,367.8,523.6,366.9,523.6,365.8z M525.8,365.8c0,0.5,0.3,0.9,0.7,1.2c0.8,0.5,2.3,0.8,4.1,0.8c1.8,0,3.3-0.2,4.1-0.8
			c0.5-0.3,0.7-0.7,0.7-1.2s-0.2-0.9-0.7-1.2c-0.8-0.5-2.3-0.8-4.1-0.8c-1.9,0-3.3,0.2-4.1,0.8C526,364.9,525.8,365.3,525.8,365.8z
			 M537.2,351.1v4.1h2.6v1.9h-2.6v4.4H535v-10.3L537.2,351.1L537.2,351.1z"/>
		<path class="st4" d="M544.4,366.4v-8.3h2.2v8.3h4c1.6,0,2.9-0.3,3.6-0.9v-14.3h2.2v7.4h2.8v1.9h-2.8v8.8h-2.2v-2
			c-0.7,0.7-2.2,1-4,1h-8.4v-1.9L544.4,366.4L544.4,366.4z M549.4,358.7v-5.4h-7v-1.9h9.1v7c0,1.6-0.2,3.6-0.4,4.8H549
			C549.2,362,549.4,360.2,549.4,358.7z"/>
		<path class="st4" d="M571,354.4h-10.2v-1.8h4.1v-2h2.2v2h3.9V354.4z M561.3,359.2c0-1.2,0.5-2.1,1.4-2.8c0.8-0.6,2-0.9,3.3-0.9
			c1.3,0,2.4,0.3,3.2,0.9c0.9,0.6,1.4,1.6,1.4,2.8c0,1.2-0.6,2.2-1.5,2.8c-0.8,0.5-1.9,0.8-3.1,0.8c-1.3,0-2.4-0.3-3.2-0.9
			C561.9,361.4,561.3,360.4,561.3,359.2z M576.4,369.3h-13.9V364h2.2v3.5h11.7V369.3z M563.4,359.2c0,0.6,0.2,1,0.6,1.3
			c0.5,0.4,1.2,0.6,1.9,0.6c0.7,0,1.3-0.2,1.8-0.5c0.4-0.3,0.7-0.8,0.7-1.4c0-0.6-0.2-1-0.6-1.4c-0.5-0.4-1.2-0.6-1.9-0.6
			c-0.7,0-1.4,0.2-1.9,0.6C563.7,358.2,563.4,358.6,563.4,359.2z M571.1,357.3v-1.8h2.8v-4.4h2.2v13.1h-2.2v-3h-2.8v-1.8h2.8v-2.1
			H571.1z"/>
		<path class="st4" d="M586.2,351.2v1.4c0,3.1,1.8,4.6,4.1,5.2v1.9c-2.2-0.4-4.2-1.6-5.1-3.1c-0.9,1.6-2.8,2.9-5.1,3.4V358
			c2.3-0.7,4-2.4,4-5.4v-1.4L586.2,351.2L586.2,351.2z M583.9,366.1v1.6h11.6v1.8h-13.8v-5.1h11.4v-1.6h-11.4V361h13.6v5.1H583.9
			L583.9,366.1z M595.3,359.9h-2.2v-8.8h2.2V359.9z"/>
		<path class="st4" d="M605.8,370.1h-2.2l7.3-19.6h2.2L605.8,370.1z"/>
		<path class="st4" d="M627.9,351.4v6.9h2.1v-7.1h2.1V369H630v-8.8h-2.1v7.8H621v-16.6H627.9L627.9,351.4z M623.1,366.2h2.7v-12.9
			h-2.7V366.2z M635.9,369.2h-2.1v-18.1h2.1V369.2z"/>
		<path class="st4" d="M648,368h-7.9v-16.6h8.8v1.9h-6.6v5.3h6.4v1.9h-6.4v5.6h5.6c1.9,0,3.4-0.3,4.2-1v-14h2.2v7.4h2.8v1.9h-2.8
			v8.8h-2.2v-2.3C651.4,367.6,649.9,368,648,368z"/>
		<path class="st4" d="M661.7,357.9h4.4v-6.4h2.2v6.9h3.5v-7.2h2.2v18.1h-2.2v-9h-3.5v7.8h-8.8v-16.6h2.2L661.7,357.9L661.7,357.9z
			 M666.1,366.1v-6.4h-4.4v6.4H666.1z"/>
		<path class="st4" d="M678.1,368.5v-1.9h16.1v1.9H678.1z M686.1,357.4c-1.2,2.1-3.8,4.1-7.7,4.9v-1.9c4.1-0.9,6.6-3.5,6.6-7.5v-1.5
			h2.2v1.5c0,4,2.6,6.5,6.7,7.5v1.9C689.9,361.5,687.3,359.5,686.1,357.4z"/>
		<path class="st4" d="M703.7,370.1h-2.2l7.3-19.6h2.2L703.7,370.1z"/>
		<path class="st4" d="M723.3,368.3c-3.4,0-5.4-1.9-5.4-4.6v-0.3h2.3v0.4c0,1.5,1.2,2.6,3.1,2.6c1.9,0,3.1-1,3.1-2.6
			c0-1.3-0.8-2.2-2.5-2.5l-2-0.4c-2.5-0.5-4-1.9-4-4.3c0-2.4,1.8-4.4,5.1-4.4c3.4,0,5.1,2,5.1,4.4v0.2h-2.3v-0.2
			c0-1.4-1-2.3-2.8-2.3c-1.8,0-2.8,1-2.8,2.3c0,1.3,0.8,2,2.4,2.3l2,0.4c2.6,0.6,4.1,2,4.1,4.5C728.7,366.4,726.7,368.3,723.3,368.3
			z"/>
		<path class="st4" d="M730.8,354.7v-2.4h2.2v2.4H730.8z M730.8,368v-11.2h2.2V368H730.8z"/>
		<path class="st4" d="M737.7,358.6c0.4-1.2,1.6-2,3.2-2c2.8,0,4.5,1.8,4.5,5.9s-1.7,5.9-4.5,5.9c-1.6,0-2.8-0.8-3.2-2v1.7h-2.2
			v-15.7h2.2V358.6z M740.5,366.5c2.1,0,2.7-1.5,2.7-4c0-2.5-0.7-4-2.7-4s-2.7,1.6-2.7,4C737.7,364.9,738.4,366.5,740.5,366.5z"/>
		<path class="st4" d="M747.6,368v-15.7h2.2V368H747.6z"/>
		<path class="st4" d="M752.4,354.7v-2.4h2.2v2.4H752.4z M752.4,368v-11.2h2.2V368H752.4z"/>
		<path class="st4" d="M766.5,368h-2.2v-6.8c0-1.9-0.8-2.8-2.2-2.8c-1.6,0-2.8,1.3-2.8,3.6v6.1h-2.2v-11.2h2.2v1.9
			c0.5-1.3,1.7-2.1,3.4-2.1c2.5,0,3.9,1.6,3.9,4.5L766.5,368L766.5,368z"/>
		<path class="st4" d="M778.4,356.9v11.6c0,2.7-1.4,4.8-4.7,4.8c-2.7,0-4.3-1.3-4.6-3.4h2.3c0.2,1.1,1,1.7,2.4,1.7
			c1.7,0,2.5-1,2.5-2.8v-2.3c-0.4,1.2-1.6,2-3.2,2c-2.8,0-4.5-1.8-4.5-5.9s1.7-5.9,4.5-5.9c1.6,0,2.8,0.8,3.2,2v-1.7L778.4,356.9
			L778.4,356.9z M773.5,358.4c-2.1,0-2.8,1.6-2.8,4c0,2.5,0.7,4,2.8,4c2.1,0,2.7-1.5,2.7-4C776.2,360,775.6,358.4,773.5,358.4z"/>
		<path class="st4" d="M788.9,359.9v0.3h-2.2v-0.3c0-0.8-0.7-1.5-2-1.5c-1.3,0-2,0.7-2,1.5c0,1.2,1,1.2,3.1,1.7
			c2.4,0.4,3.5,1.5,3.5,3.4c0,1.9-1.7,3.4-4.4,3.4c-2.7,0-4.4-1.4-4.4-3.4v-0.3h2.2v0.3c0,1,0.9,1.6,2.2,1.6c1.3,0,2.2-0.6,2.2-1.6
			c0-1.3-1-1.4-3.1-1.9c-2.4-0.4-3.5-1.4-3.5-3.3c0-1.9,1.5-3.3,4.2-3.3C787.4,356.6,788.9,357.9,788.9,359.9z"/>
		<path class="st4" d="M790.5,370.5v-1.9c1.9,0,2.8-1,2.8-8.2c0-7.2-0.9-8.2-2.8-8.2v-1.9c3.4,0,5,1.6,5,10.1
			C795.5,368.8,793.9,370.5,790.5,370.5z"/>
		<path class="st4" d="M238.6,388.7h-1.8v3.3h-2.3v-3.3h-6.5v-2l6.2-10.4h2.5v10.4h1.8L238.6,388.7L238.6,388.7z M234.6,386.8v-6.9
			l-4.1,6.9H234.6z"/>
		<path class="st4" d="M243.8,392h-2.5v-2.7h2.5V392z"/>
		<path class="st4" d="M255.6,377.8h4.5v-2.4h2.1v1.6h3.7v-1.8h2.2v9.1H266v-2h-3.7v1.5h-8.8v-8.4h2.1L255.6,377.8L255.6,377.8z
			 M256.8,390.2v1.5h11.6v1.8h-13.8v-5H266V387h-11.4v-1.8h13.6v5H256.8z M260.2,382v-2.4h-4.5v2.4H260.2z M262.3,378.7v1.7h3.7
			v-1.7H262.3z"/>
		<path class="st4" d="M287.4,375.1v18.1h-2.2v-2.1c-0.8,0.7-2.4,1-4.4,1h-8.4v-1.9h9c1.6,0,3-0.2,3.9-0.9v-14.3L287.4,375.1
			L287.4,375.1z M272.9,380.9c0-2,0.6-3.6,1.7-4.6c0.8-0.7,2-1.1,3.3-1.1s2.4,0.4,3.3,1.1c1.2,1,1.7,2.6,1.7,4.6s-0.5,3.6-1.7,4.6
			c-0.8,0.7-2,1.1-3.3,1.1s-2.4-0.4-3.3-1.1C273.5,384.4,272.9,382.9,272.9,380.9z M275.1,380.9c0,1.4,0.3,2.5,1,3.1
			c0.5,0.4,1.1,0.7,1.8,0.7c0.8,0,1.4-0.2,1.8-0.7c0.7-0.6,1-1.7,1-3.1c0-1.3-0.3-2.5-1-3.1c-0.4-0.4-1.1-0.6-1.8-0.6
			c-0.7,0-1.4,0.2-1.8,0.6C275.4,378.4,275.1,379.5,275.1,380.9z"/>
		<path class="st4" d="M307.3,378.1h-10.2v-1.8h4.1v-1.7h2.2v1.7h3.9L307.3,378.1L307.3,378.1z M297.6,382.4c0-1.1,0.5-1.9,1.3-2.5
			c0.8-0.6,2-0.9,3.3-0.9c1.3,0,2.5,0.3,3.3,0.9s1.3,1.4,1.3,2.5c0,1.1-0.5,1.9-1.3,2.5c-0.8,0.6-2,0.9-3.3,0.9
			c-1.4,0-2.6-0.3-3.4-0.9C298.1,384.2,297.6,383.5,297.6,382.4z M298.6,390.3c0-1.1,0.5-1.8,1.4-2.4c1.3-0.8,3.3-1,5.7-1
			c2.4,0,4.5,0.3,5.7,1c0.9,0.5,1.4,1.3,1.4,2.4c0,1.1-0.5,1.8-1.4,2.4c-1.3,0.8-3.3,1-5.7,1s-4.4-0.3-5.7-1
			C299.1,392.1,298.6,391.3,298.6,390.3z M299.7,382.4c0,0.5,0.2,0.9,0.6,1.1c0.5,0.3,1.1,0.5,1.9,0.5c0.8,0,1.5-0.2,2-0.6
			c0.3-0.3,0.5-0.6,0.5-1.1s-0.2-0.9-0.6-1.1c-0.5-0.4-1.2-0.5-1.9-0.5c-0.8,0-1.5,0.2-1.9,0.5C300,381.5,299.7,382,299.7,382.4z
			 M300.8,390.3c0,0.4,0.2,0.7,0.6,0.9c0.8,0.5,2.4,0.7,4.3,0.7c2,0,3.5-0.2,4.3-0.7c0.4-0.2,0.6-0.5,0.6-0.9s-0.2-0.7-0.6-0.9
			c-0.8-0.5-2.3-0.7-4.3-0.7c-2,0-3.5,0.2-4.3,0.7C301,389.6,300.8,389.9,300.8,390.3z M307.4,380.8V379h2.8v-3.9h2.2v11.2h-2.2v-2
			h-2.8v-1.8h2.8v-1.7H307.4L307.4,380.8z"/>
		<path class="st4" d="M321.9,392H317v-16.6h6.6v1.9h-4.4v5.3h4.2v1.9h-4.2v5.6h3.2c1.5,0,2.6-0.3,3.3-0.9v-14h2.1v7.1h2v-7.2h2.1
			v18.1h-2.1v-9h-2v8.8h-2.1v-2C324.9,391.7,323.6,392,321.9,392z"/>
		<path class="st4" d="M340.9,383.8h6.8v1.9h-6.8V383.8z"/>
		<path class="st4" d="M361.2,374.1v1.9c-1.9,0-2.8,1-2.8,8.2c0,7.2,0.9,8.2,2.8,8.2v1.9c-3.3,0-5-1.6-5-10.2
			C356.2,375.8,357.8,374.1,361.2,374.1z"/>
		<path class="st4" d="M370.2,379.4v-2h-6.6v-1.9h8.8v3.7c0,6.9-2.6,11.5-8.9,13.1v-2.1C368.2,388.8,370.2,385,370.2,379.4z
			 M377.8,375.1v7.4h2.8v1.9h-2.8v8.8h-2.2v-18.1H377.8z"/>
		<path class="st4" d="M382.7,379.3v-1.9h3.8v-2.8h2.2v2.8h3.8v1.9h-3.8v2.9c0,4.8,1.9,6.8,4,7.8v2c-2.3-0.8-4.2-2.5-5.1-4.5
			c-0.9,1.9-2.9,3.7-5.1,4.5v-2c2.1-1,4-3,4-7.8v-2.9H382.7z M397.4,375.1v18.1h-2.2v-18.1H397.4z"/>
		<path class="st4" d="M402,380.6c0-1.8,0.6-3.4,1.6-4.3c0.8-0.7,1.9-1.1,3.2-1.1c1.3,0,2.5,0.4,3.3,1.1c1,0.9,1.6,2.5,1.6,4.3
			s-0.6,3.4-1.6,4.3c-0.6,0.5-1.3,0.9-2.2,1v4.4h2.4c1.6,0,2.9-0.3,3.6-0.9v-14.3h2.2v7.4h2.8v1.9h-2.8v8.8H414v-2.1
			c-0.7,0.7-2.2,1-4,1h-8.4v-1.9h4.2V386c-0.8-0.1-1.6-0.5-2.1-1C402.6,384,402,382.5,402,380.6z M404.2,380.6
			c0,1.2,0.3,2.2,0.8,2.8c0.4,0.5,1.1,0.8,1.9,0.8c0.8,0,1.5-0.3,1.9-0.8c0.5-0.6,0.8-1.6,0.8-2.8c0-1.1-0.3-2.2-0.8-2.8
			c-0.4-0.5-1.1-0.7-1.9-0.7c-0.8,0-1.5,0.3-1.9,0.7C404.5,378.4,404.2,379.5,404.2,380.6z"/>
		<path class="st4" d="M435.9,384.3H427v-9h8.8V384.3z M430.3,388.2v3.3h11.6v1.8h-13.8v-7h13.6v1.9L430.3,388.2L430.3,388.2z
			 M433.7,382.5v-5.2h-4.6v5.2H433.7z M441.7,385.2h-2.2v-10.1h2.2V385.2z"/>
		<path class="st4" d="M445.6,385.3v-1.8H462v1.8H445.6z M446.5,378.5c0-1,0.4-1.7,1.1-2.2c1.3-0.9,3.5-1.2,6.2-1.2
			c2.7,0,4.9,0.3,6.2,1.2c0.7,0.5,1.1,1.3,1.1,2.2c0,1-0.4,1.7-1.1,2.2c-1.3,0.9-3.5,1.2-6.2,1.2c-2.7,0-4.9-0.3-6.2-1.2
			C446.9,380.2,446.5,379.5,446.5,378.5z M460.8,393.4h-14v-6.3h14V393.4z M448.7,378.5c0,0.4,0.2,0.7,0.5,0.9
			c0.8,0.5,2.5,0.7,4.7,0.7s3.9-0.2,4.6-0.7c0.3-0.2,0.5-0.5,0.5-0.9s-0.2-0.6-0.5-0.9c-0.8-0.5-2.4-0.7-4.6-0.7s-3.9,0.2-4.7,0.7
			C448.8,377.9,448.7,378.2,448.7,378.5z M458.6,391.6V389H449v2.6H458.6z"/>
		<path class="st4" d="M463.8,394.5v-1.9c1.9,0,2.8-1,2.8-8.2c0-7.2-0.9-8.2-2.8-8.2v-1.9c3.4,0,5,1.6,5,10.1
			C468.8,392.8,467.2,394.5,463.8,394.5z"/>
	</g>
</g>
<image style="display:none;overflow:visible;enable-background:new    ;" width="1998" height="1500" xlink:href="7FAEA66BF87DB39C.jpeg"  transform="matrix(0.4994 0 0 0.4994 30.6652 480.4277)">
</image>
<image style="display:none;overflow:visible;enable-background:new    ;" width="4597" height="2997" xlink:href="7FAEA66BF87DB39C.jpeg"  transform="matrix(0.2173 0 0 0.2173 30 -1111.2678)">
</image>
<image style="display:none;overflow:visible;enable-background:new    ;" width="3580" height="2304" xlink:href="7FAEA66BF87DB39C.jpeg"  transform="matrix(0.2787 0 0 0.2787 30.7281 1229.7344)">
</image>
<rect x="30" y="-459.7" class="st5" width="499.6" height="332.8"/>
<g class="st1">
	<g class="st2">
		<path d="M185-251.2c0.9-1.4,2-2.6,3.5-3.4c1.5-0.8,3.1-1.2,4.8-1.2c2,0,3.8,0.5,5.3,1.5c1.6,1,2.7,2.4,3.4,4.2h-3.7
			c-0.5-1-1.2-1.7-2-2.2s-1.9-0.7-3-0.7c-1.2,0-2.3,0.3-3.3,0.8c-1,0.6-1.7,1.4-2.3,2.4c-0.6,1-0.8,2.2-0.8,3.6s0.3,2.6,0.8,3.6
			s1.3,1.8,2.3,2.4c1,0.6,2.1,0.9,3.3,0.9c1.1,0,2.1-0.2,3-0.7c0.9-0.5,1.5-1.2,2-2.2h3.7c-0.7,1.8-1.8,3.2-3.4,4.1
			c-1.6,1-3.3,1.4-5.3,1.4c-1.8,0-3.4-0.4-4.8-1.2c-1.4-0.8-2.6-1.9-3.5-3.4s-1.3-3.1-1.3-4.9C183.7-248.1,184.1-249.7,185-251.2z"
			/>
		<path d="M218.9-251.7l-9.1,21.8h-3.2l3-7.2l-5.8-14.6h3.4l4.2,11.3l4.3-11.3H218.9L218.9-251.7z"/>
		<path d="M226.4-251.2c0.9-0.5,1.9-0.7,3-0.7c1.3,0,2.5,0.3,3.6,0.9s1.9,1.5,2.5,2.7s0.9,2.5,0.9,4s-0.3,2.8-0.9,4
			s-1.4,2.1-2.5,2.8c-1.1,0.6-2.2,1-3.5,1c-1.1,0-2.2-0.2-3.1-0.7s-1.6-1-2.1-1.7v2.1h-3.1v-19.9h3.1v7.3
			C224.8-250.2,225.5-250.8,226.4-251.2z M232.6-247c-0.4-0.7-1-1.3-1.7-1.7s-1.4-0.6-2.2-0.6c-0.8,0-1.5,0.2-2.2,0.6
			c-0.7,0.4-1.2,1-1.7,1.7s-0.6,1.6-0.6,2.7s0.2,1.9,0.6,2.7s1,1.3,1.7,1.7c0.7,0.4,1.4,0.6,2.2,0.6c0.8,0,1.5-0.2,2.2-0.6
			c0.7-0.4,1.2-1,1.7-1.8s0.6-1.7,0.6-2.7C233.3-245.4,233.1-246.2,232.6-247z"/>
		<path d="M252.9-243.1h-11.3c0.1,1.2,0.5,2.1,1.3,2.9c0.8,0.7,1.8,1.1,2.9,1.1c1.6,0,2.8-0.7,3.5-2.1h3.3c-0.4,1.4-1.3,2.5-2.4,3.4
			c-1.2,0.9-2.6,1.3-4.4,1.3c-1.4,0-2.7-0.3-3.8-0.9c-1.1-0.6-2-1.5-2.6-2.7s-0.9-2.5-0.9-4s0.3-2.9,0.9-4c0.6-1.2,1.5-2.1,2.6-2.7
			s2.4-0.9,3.9-0.9c1.4,0,2.6,0.3,3.7,0.9c1.1,0.6,1.9,1.5,2.6,2.6s0.9,2.4,0.9,3.8C253-244.1,253-243.6,252.9-243.1z M249.8-245.6
			c0-1.1-0.4-2-1.2-2.7c-0.8-0.7-1.8-1-2.9-1c-1.1,0-2,0.3-2.7,1c-0.8,0.7-1.2,1.6-1.3,2.7L249.8-245.6L249.8-245.6z"/>
		<path d="M260.9-251.3c0.7-0.4,1.6-0.6,2.6-0.6v3.2h-0.8c-1.2,0-2.1,0.3-2.7,0.9s-0.9,1.7-0.9,3.2v7.8H256v-14.8h3.1v2.1
			C259.5-250.3,260.1-250.9,260.9-251.3z"/>
		<path d="M276.1-237.3c-1-0.4-1.8-1.1-2.4-1.9c-0.6-0.8-0.9-1.8-0.9-2.8h3.3c0.1,0.8,0.4,1.5,1,2s1.4,0.8,2.4,0.8
			c1.1,0,1.9-0.3,2.5-0.8s0.9-1.2,0.9-2c0-0.6-0.2-1.1-0.5-1.5c-0.4-0.4-0.8-0.7-1.4-0.9c-0.5-0.2-1.3-0.4-2.3-0.7
			c-1.2-0.3-2.2-0.6-3-1s-1.4-0.9-2-1.6s-0.8-1.6-0.8-2.8c0-1.1,0.3-2,0.8-2.8s1.3-1.4,2.3-1.9c1-0.4,2.1-0.6,3.4-0.6
			c1.8,0,3.3,0.4,4.5,1.4c1.2,0.9,1.8,2.1,1.9,3.7h-3.4c0-0.7-0.4-1.3-1-1.8c-0.6-0.5-1.4-0.7-2.3-0.7c-0.9,0-1.6,0.2-2.1,0.7
			c-0.6,0.4-0.8,1.1-0.8,1.9c0,0.6,0.2,1.1,0.5,1.4c0.4,0.4,0.8,0.7,1.3,0.9c0.5,0.2,1.3,0.4,2.2,0.7c1.2,0.3,2.2,0.7,3,1
			c0.8,0.3,1.4,0.9,2,1.6s0.8,1.6,0.8,2.8c0,0.9-0.3,1.9-0.8,2.7c-0.5,0.8-1.2,1.5-2.2,2s-2.1,0.8-3.5,0.8
			C278.3-236.7,277.1-236.9,276.1-237.3z"/>
		<path d="M289.8-254.2c-0.4-0.4-0.6-0.8-0.6-1.4s0.2-1,0.6-1.4s0.8-0.6,1.4-0.6c0.5,0,1,0.2,1.4,0.6c0.4,0.4,0.6,0.8,0.6,1.4
			s-0.2,1-0.6,1.4s-0.8,0.6-1.4,0.6C290.6-253.6,290.1-253.8,289.8-254.2z M292.7-251.7v14.8h-3.1v-14.8H292.7z"/>
		<path d="M301.9-251.2c0.9-0.5,1.9-0.7,3-0.7c1.3,0,2.5,0.3,3.5,0.9s1.9,1.5,2.5,2.7s0.9,2.5,0.9,4s-0.3,2.8-0.9,4
			c-0.6,1.2-1.5,2.1-2.5,2.8c-1.1,0.6-2.2,1-3.5,1c-1.1,0-2.2-0.2-3.1-0.7c-0.9-0.4-1.6-1-2.1-1.7v2.1h-3.1v-19.9h3.1v7.3
			C300.3-250.2,301-250.8,301.9-251.2z M308.2-247c-0.4-0.7-1-1.3-1.7-1.7s-1.4-0.6-2.2-0.6c-0.8,0-1.5,0.2-2.2,0.6
			c-0.7,0.4-1.2,1-1.7,1.7s-0.6,1.6-0.6,2.7s0.2,1.9,0.6,2.7s1,1.3,1.7,1.7c0.7,0.4,1.4,0.6,2.2,0.6c0.8,0,1.5-0.2,2.2-0.6
			c0.7-0.4,1.2-1,1.7-1.8s0.6-1.7,0.6-2.7C308.8-245.4,308.6-246.2,308.2-247z"/>
		<path d="M318-256.8v19.9h-3.1v-19.9H318z"/>
		<path d="M322.2-254.2c-0.4-0.4-0.6-0.8-0.6-1.4s0.2-1,0.6-1.4s0.8-0.6,1.4-0.6c0.5,0,1,0.2,1.4,0.6c0.4,0.4,0.6,0.8,0.6,1.4
			s-0.2,1-0.6,1.4s-0.8,0.6-1.4,0.6C323.1-253.6,322.6-253.8,322.2-254.2z M325.1-251.7v14.8h-3.1v-14.8H325.1z"/>
		<path d="M339.8-251.2c0.9,0.5,1.6,1.2,2.2,2.1c0.5,0.9,0.8,2.1,0.8,3.4v8.8h-3v-8.3c0-1.3-0.3-2.4-1-3.1c-0.7-0.7-1.6-1.1-2.7-1.1
			s-2.1,0.4-2.7,1.1s-1,1.7-1,3.1v8.3h-3.1v-14.8h3.1v1.7c0.5-0.6,1.1-1.1,1.9-1.4s1.6-0.5,2.5-0.5
			C337.8-251.9,338.9-251.7,339.8-251.2z"/>
		<path d="M355.7-251.2c0.9,0.5,1.6,1,2.1,1.7v-2.1h3.1v15.1c0,1.4-0.3,2.6-0.9,3.6c-0.6,1.1-1.4,1.9-2.5,2.5s-2.4,0.9-3.9,0.9
			c-2,0-3.7-0.5-5-1.4c-1.3-0.9-2.1-2.2-2.3-3.8h3c0.2,0.8,0.7,1.4,1.5,1.9c0.8,0.5,1.7,0.7,2.7,0.7c1.2,0,2.2-0.4,3-1.1
			s1.1-1.9,1.1-3.3v-2.5c-0.5,0.7-1.2,1.3-2.1,1.8c-0.9,0.5-1.9,0.7-3,0.7c-1.3,0-2.5-0.3-3.5-1s-1.9-1.6-2.5-2.8
			c-0.6-1.2-0.9-2.5-0.9-4s0.3-2.8,0.9-4s1.5-2,2.5-2.7s2.2-1,3.5-1C353.8-251.9,354.8-251.7,355.7-251.2z M357.1-246.9
			c-0.4-0.8-1-1.3-1.7-1.7c-0.7-0.4-1.4-0.6-2.2-0.6c-0.8,0-1.5,0.2-2.2,0.6c-0.7,0.4-1.2,0.9-1.7,1.7c-0.4,0.7-0.6,1.6-0.6,2.6
			s0.2,1.9,0.6,2.7s1,1.4,1.7,1.8s1.4,0.6,2.2,0.6c0.8,0,1.5-0.2,2.2-0.6s1.2-1,1.7-1.7c0.4-0.8,0.6-1.6,0.6-2.7
			C357.7-245.3,357.5-246.2,357.1-246.9z"/>
		<path d="M367.1-237.2c-0.9-0.4-1.7-1-2.2-1.7c-0.5-0.7-0.8-1.5-0.9-2.4h3.2c0,0.6,0.4,1.1,0.9,1.6s1.2,0.6,2.1,0.6
			c0.9,0,1.5-0.2,2-0.5c0.5-0.3,0.7-0.8,0.7-1.3c0-0.6-0.3-1-0.8-1.2s-1.4-0.6-2.5-0.9c-1.1-0.3-2-0.6-2.7-0.9s-1.3-0.7-1.8-1.3
			s-0.8-1.4-0.8-2.3c0-0.8,0.2-1.5,0.7-2.2c0.5-0.6,1.1-1.2,2-1.6s1.9-0.6,3-0.6c1.7,0,3,0.4,4.1,1.3c1,0.9,1.6,2,1.7,3.5h-3.1
			c0-0.7-0.3-1.2-0.8-1.6c-0.5-0.4-1.1-0.6-2-0.6c-0.8,0-1.4,0.1-1.9,0.5c-0.4,0.3-0.6,0.7-0.6,1.2c0,0.4,0.1,0.7,0.4,1
			c0.3,0.3,0.6,0.5,1,0.6c0.4,0.1,1,0.4,1.8,0.6c1.1,0.3,2,0.6,2.6,0.9c0.7,0.3,1.3,0.7,1.8,1.3c0.5,0.6,0.8,1.3,0.8,2.3
			c0,0.8-0.2,1.6-0.7,2.3c-0.5,0.7-1.1,1.2-2,1.6s-1.9,0.6-3,0.6C369.1-236.6,368-236.8,367.1-237.2z"/>
	</g>
	<g class="st2">
		<path d="M266.4-281.8l-0.1,11.4c8.3-1,15-2.4,20.3-4.4c7.7-2.9,13.2-6.5,16.3-11c3.1-4.5,3.7-9.4,1.8-14.6
			c-1.7-4.5-4.3-7.4-7.8-8.5c-3.5-1.1-10.4-1.5-20.5-1.1c-6.7,0.2-11.7,0-15-0.8c-3.2-0.7-6.3-2.2-9.1-4.4c-2.7-2.2-4.8-5.1-6.1-8.8
			c-1.4-3.9-1.8-7.2-1-9.9c-3,4.8-3.5,10.1-1.3,15.8c1.4,3.8,3.6,6.8,6.7,9.2c3,2.3,6.3,3.7,9.8,4.2c1.5,0.2,3.3,0.4,5.7,0.4
			c-0.1,1.2-0.9,4-5,5.1c4.5,0.7,5.4,3.7,5.6,4.7L266.4-281.8z M271.5-299.8c-4.2-0.6-5.3-3.3-5.5-4.5c2.9,0.1,6.4,0.1,10.5,0
			c8.2-0.2,13.9,0.2,17,1.1c3,0.8,5,2.7,6.1,5.6c1,2.8,0.4,5.7-1.9,8.8c-2.2,3.1-5.7,5.5-10.3,7.2c-1.4,0.5-2.8,1-4.2,1.3
			c-0.6,0.1-1.2,0.2-1.8,0.3c-0.4,0.1-0.8,0.2-1.1,0.2c-11.9,1.2-13.6-11.2-13.8-14.6C266.6-295.4,267.1-298.5,271.5-299.8z"/>
		<path d="M281.4-317.5c6.7-0.2,11.7,0,15,0.8c3.2,0.7,6.3,2.2,9.1,4.4c2.7,2.2,4.8,5.1,6.1,8.8c1.4,3.9,1.8,7.2,1,9.9
			c3-4.8,3.5-10.1,1.3-15.8c-1.4-3.8-3.6-6.8-6.7-9.2c-3-2.3-6.3-3.7-9.8-4.2c-3.2-0.5-8.7-0.6-16.3-0.5c-8.2,0.2-13.9-0.2-17-1.1
			c-3-0.8-5-2.7-6.1-5.6c-1-2.8-0.4-5.7,1.9-8.8c2.2-3.1,5.7-5.5,10.3-7.2c1.4-0.5,2.8-1,4.2-1.3c0.6-0.1,1.2-0.2,1.8-0.3
			c0.4-0.1,0.8-0.2,1.1-0.2c3.4-0.3,6,0.5,7.9,1.8c7,5.1,5.1,18.7,5.1,18.7l0.8,0.1l0-11.3l0,0l0-7.3l0.1-11.4
			c-8.3,1-15,2.4-20.3,4.4c-7.7,2.9-13.2,6.5-16.3,11c-3.1,4.5-3.7,9.4-1.8,14.6c1.7,4.5,4.3,7.4,7.8,8.5
			C264.4-317.5,271.3-317.2,281.4-317.5z"/>
	</g>
</g>
<rect x="529.6" y="-459.7" class="st1" width="499.6" height="332.8"/>
<g class="st1">
	<g class="st2">
		
			<linearGradient id="SVGID_1_" gradientUnits="userSpaceOnUse" x1="692.4199" y1="-491.3618" x2="692.4199" y2="-464.0579" gradientTransform="matrix(1 0 0 1 0 230)">
			<stop  offset="0" style="stop-color:#7C7C7C"/>
			<stop  offset="0.53" style="stop-color:#E3E3E3"/>
			<stop  offset="1" style="stop-color:#7C7C7C"/>
		</linearGradient>
		<path class="st6" d="M684.6-251.2c0.8-1.4,2-2.6,3.5-3.4c1.5-0.8,3.1-1.2,4.8-1.2c2,0,3.8,0.5,5.3,1.5c1.5,1,2.7,2.4,3.4,4.2h-3.7
			c-0.5-1-1.2-1.7-2-2.2c-0.9-0.5-1.9-0.7-3-0.7c-1.2,0-2.3,0.3-3.3,0.8c-1,0.6-1.7,1.4-2.3,2.4c-0.5,1-0.8,2.2-0.8,3.6
			s0.3,2.6,0.8,3.6s1.3,1.8,2.3,2.4c1,0.6,2.1,0.9,3.3,0.9c1.1,0,2.1-0.2,3-0.7c0.9-0.5,1.5-1.2,2-2.2h3.7c-0.7,1.8-1.8,3.2-3.4,4.1
			c-1.5,1-3.3,1.4-5.3,1.4c-1.8,0-3.4-0.4-4.8-1.2c-1.5-0.8-2.6-1.9-3.5-3.4c-0.8-1.4-1.3-3.1-1.3-4.9
			C683.3-248.1,683.7-249.7,684.6-251.2z"/>
		
			<linearGradient id="SVGID_00000183220278097057309520000017531773960242633900_" gradientUnits="userSpaceOnUse" x1="710.925" y1="-491.3618" x2="710.925" y2="-464.0579" gradientTransform="matrix(1 0 0 1 0 230)">
			<stop  offset="0" style="stop-color:#7C7C7C"/>
			<stop  offset="0.53" style="stop-color:#E3E3E3"/>
			<stop  offset="1" style="stop-color:#7C7C7C"/>
		</linearGradient>
		<path style="fill:url(#SVGID_00000183220278097057309520000017531773960242633900_);" d="M718.5-251.7l-9.1,21.8h-3.2l3-7.2
			l-5.8-14.6h3.4l4.2,11.3l4.3-11.3H718.5L718.5-251.7z"/>
		
			<linearGradient id="SVGID_00000018949181850816650430000001594403161324264860_" gradientUnits="userSpaceOnUse" x1="728.39" y1="-491.3618" x2="728.39" y2="-464.058" gradientTransform="matrix(1 0 0 1 0 230)">
			<stop  offset="0" style="stop-color:#7C7C7C"/>
			<stop  offset="0.53" style="stop-color:#E3E3E3"/>
			<stop  offset="1" style="stop-color:#7C7C7C"/>
		</linearGradient>
		<path style="fill:url(#SVGID_00000018949181850816650430000001594403161324264860_);" d="M726-251.2c0.9-0.5,1.9-0.7,3-0.7
			c1.3,0,2.5,0.3,3.5,0.9s1.9,1.5,2.5,2.7s0.9,2.5,0.9,4s-0.3,2.8-0.9,4s-1.5,2.1-2.5,2.8c-1.1,0.6-2.2,1-3.5,1
			c-1.2,0-2.2-0.2-3-0.7c-0.9-0.4-1.6-1-2.1-1.7v2.1h-3.1v-19.9h3.1v7.3C724.4-250.2,725.1-250.8,726-251.2z M732.2-247
			c-0.4-0.7-1-1.3-1.7-1.7s-1.4-0.6-2.2-0.6c-0.8,0-1.5,0.2-2.2,0.6c-0.7,0.4-1.2,1-1.7,1.7s-0.6,1.6-0.6,2.7s0.2,1.9,0.6,2.7
			s1,1.3,1.7,1.7c0.7,0.4,1.4,0.6,2.2,0.6c0.8,0,1.5-0.2,2.2-0.6c0.7-0.4,1.2-1,1.7-1.8s0.6-1.7,0.6-2.7
			C732.9-245.4,732.7-246.2,732.2-247z"/>
		
			<linearGradient id="SVGID_00000037654566145632986130000016176963879170327970_" gradientUnits="userSpaceOnUse" x1="745.33" y1="-491.3618" x2="745.33" y2="-464.058" gradientTransform="matrix(1 0 0 1 0 230)">
			<stop  offset="0" style="stop-color:#7C7C7C"/>
			<stop  offset="0.53" style="stop-color:#E3E3E3"/>
			<stop  offset="1" style="stop-color:#7C7C7C"/>
		</linearGradient>
		<path style="fill:url(#SVGID_00000037654566145632986130000016176963879170327970_);" d="M752.5-243.1h-11.3
			c0.1,1.2,0.5,2.1,1.3,2.9c0.8,0.7,1.8,1.1,2.9,1.1c1.7,0,2.8-0.7,3.5-2.1h3.3c-0.5,1.4-1.3,2.5-2.4,3.4s-2.6,1.3-4.4,1.3
			c-1.4,0-2.7-0.3-3.8-0.9c-1.1-0.6-2-1.5-2.6-2.7s-1-2.5-1-4s0.3-2.9,0.9-4c0.6-1.2,1.5-2.1,2.6-2.7s2.4-0.9,3.9-0.9
			c1.4,0,2.7,0.3,3.7,0.9c1.1,0.6,2,1.5,2.6,2.6s0.9,2.4,0.9,3.8C752.6-244.1,752.6-243.6,752.5-243.1z M749.4-245.6
			c0-1.1-0.4-2-1.2-2.7c-0.8-0.7-1.8-1-2.9-1c-1.1,0-2,0.3-2.7,1c-0.8,0.7-1.2,1.6-1.3,2.7L749.4-245.6L749.4-245.6z"/>
		
			<linearGradient id="SVGID_00000082338507892902855070000007979386548793755065_" gradientUnits="userSpaceOnUse" x1="759.395" y1="-491.3618" x2="759.395" y2="-464.058" gradientTransform="matrix(1 0 0 1 0 230)">
			<stop  offset="0" style="stop-color:#7C7C7C"/>
			<stop  offset="0.53" style="stop-color:#E3E3E3"/>
			<stop  offset="1" style="stop-color:#7C7C7C"/>
		</linearGradient>
		<path style="fill:url(#SVGID_00000082338507892902855070000007979386548793755065_);" d="M760.5-251.3c0.7-0.4,1.6-0.6,2.7-0.6
			v3.2h-0.8c-1.2,0-2.1,0.3-2.7,0.9s-0.9,1.7-0.9,3.2v7.8h-3.1v-14.8h3.1v2.1C759.2-250.3,759.8-250.9,760.5-251.3z"/>
		
			<linearGradient id="SVGID_00000083784739620841027690000009069665267934219192_" gradientUnits="userSpaceOnUse" x1="779.045" y1="-491.3618" x2="779.045" y2="-464.0579" gradientTransform="matrix(1 0 0 1 0 230)">
			<stop  offset="0" style="stop-color:#7C7C7C"/>
			<stop  offset="0.53" style="stop-color:#E3E3E3"/>
			<stop  offset="1" style="stop-color:#7C7C7C"/>
		</linearGradient>
		<path style="fill:url(#SVGID_00000083784739620841027690000009069665267934219192_);" d="M775.7-237.3c-1-0.4-1.8-1.1-2.4-1.9
			s-0.9-1.8-0.9-2.8h3.3c0.1,0.8,0.4,1.5,1,2c0.6,0.5,1.4,0.8,2.4,0.8c1.1,0,1.9-0.3,2.5-0.8s0.9-1.2,0.9-2c0-0.6-0.2-1.1-0.5-1.5
			c-0.4-0.4-0.8-0.7-1.4-0.9c-0.5-0.2-1.3-0.4-2.3-0.7c-1.2-0.3-2.2-0.6-3-1c-0.8-0.3-1.4-0.9-2-1.6c-0.5-0.7-0.8-1.6-0.8-2.8
			c0-1.1,0.3-2,0.8-2.8s1.3-1.4,2.3-1.9c1-0.4,2.1-0.6,3.4-0.6c1.8,0,3.3,0.4,4.5,1.4c1.2,0.9,1.8,2.1,1.9,3.7H782
			c0-0.7-0.4-1.3-1-1.8c-0.6-0.5-1.4-0.7-2.3-0.7c-0.9,0-1.6,0.2-2.2,0.7c-0.6,0.4-0.8,1.1-0.8,1.9c0,0.6,0.2,1.1,0.5,1.4
			c0.3,0.4,0.8,0.7,1.3,0.9c0.5,0.2,1.3,0.4,2.2,0.7c1.2,0.3,2.2,0.7,3,1s1.4,0.9,2,1.6s0.8,1.6,0.8,2.8c0,0.9-0.3,1.9-0.8,2.7
			s-1.2,1.5-2.2,2s-2.1,0.8-3.5,0.8C777.9-236.7,776.8-236.9,775.7-237.3z"/>
		
			<linearGradient id="SVGID_00000095319290683593264450000006725237222392439431_" gradientUnits="userSpaceOnUse" x1="790.775" y1="-491.3618" x2="790.775" y2="-464.058" gradientTransform="matrix(1 0 0 1 0 230)">
			<stop  offset="0" style="stop-color:#7C7C7C"/>
			<stop  offset="0.53" style="stop-color:#E3E3E3"/>
			<stop  offset="1" style="stop-color:#7C7C7C"/>
		</linearGradient>
		<path style="fill:url(#SVGID_00000095319290683593264450000006725237222392439431_);" d="M789.4-254.2c-0.4-0.4-0.6-0.8-0.6-1.4
			s0.2-1,0.6-1.4s0.8-0.6,1.4-0.6c0.5,0,1,0.2,1.4,0.6c0.4,0.4,0.6,0.8,0.6,1.4s-0.2,1-0.6,1.4s-0.8,0.6-1.4,0.6
			C790.2-253.6,789.8-253.8,789.4-254.2z M792.3-251.7v14.8h-3.1v-14.8H792.3z"/>
		
			<linearGradient id="SVGID_00000150101054481049099840000014319462010456542848_" gradientUnits="userSpaceOnUse" x1="803.925" y1="-491.3618" x2="803.925" y2="-464.058" gradientTransform="matrix(1 0 0 1 0 230)">
			<stop  offset="0" style="stop-color:#7C7C7C"/>
			<stop  offset="0.53" style="stop-color:#E3E3E3"/>
			<stop  offset="1" style="stop-color:#7C7C7C"/>
		</linearGradient>
		<path style="fill:url(#SVGID_00000150101054481049099840000014319462010456542848_);" d="M801.5-251.2c0.9-0.5,1.9-0.7,3-0.7
			c1.3,0,2.5,0.3,3.5,0.9s1.9,1.5,2.5,2.7s0.9,2.5,0.9,4s-0.3,2.8-0.9,4s-1.5,2.1-2.5,2.8c-1.1,0.6-2.2,1-3.5,1
			c-1.2,0-2.2-0.2-3.1-0.7s-1.6-1-2.1-1.7v2.1h-3.1v-19.9h3.1v7.3C799.9-250.2,800.6-250.8,801.5-251.2z M807.8-247
			c-0.4-0.7-1-1.3-1.7-1.7s-1.4-0.6-2.2-0.6c-0.8,0-1.5,0.2-2.2,0.6c-0.7,0.4-1.2,1-1.7,1.7s-0.6,1.6-0.6,2.7s0.2,1.9,0.6,2.7
			s1,1.3,1.7,1.7c0.7,0.4,1.4,0.6,2.2,0.6c0.8,0,1.5-0.2,2.2-0.6c0.7-0.4,1.2-1,1.7-1.8s0.6-1.7,0.6-2.7
			C808.4-245.4,808.2-246.2,807.8-247z"/>
		
			<linearGradient id="SVGID_00000143609854091325248430000007489687922991262895_" gradientUnits="userSpaceOnUse" x1="816.11" y1="-491.3618" x2="816.11" y2="-464.058" gradientTransform="matrix(1 0 0 1 0 230)">
			<stop  offset="0" style="stop-color:#7C7C7C"/>
			<stop  offset="0.53" style="stop-color:#E3E3E3"/>
			<stop  offset="1" style="stop-color:#7C7C7C"/>
		</linearGradient>
		<path style="fill:url(#SVGID_00000143609854091325248430000007489687922991262895_);" d="M817.6-256.8v19.9h-3.1v-19.9H817.6z"/>
		
			<linearGradient id="SVGID_00000167396103107048040390000015331917021727962538_" gradientUnits="userSpaceOnUse" x1="823.225" y1="-491.3618" x2="823.225" y2="-464.058" gradientTransform="matrix(1 0 0 1 0 230)">
			<stop  offset="0" style="stop-color:#7C7C7C"/>
			<stop  offset="0.53" style="stop-color:#E3E3E3"/>
			<stop  offset="1" style="stop-color:#7C7C7C"/>
		</linearGradient>
		<path style="fill:url(#SVGID_00000167396103107048040390000015331917021727962538_);" d="M821.8-254.2c-0.4-0.4-0.6-0.8-0.6-1.4
			s0.2-1,0.6-1.4s0.8-0.6,1.4-0.6c0.5,0,1,0.2,1.4,0.6c0.4,0.4,0.6,0.8,0.6,1.4s-0.2,1-0.6,1.4s-0.8,0.6-1.4,0.6
			C822.7-253.6,822.2-253.8,821.8-254.2z M824.8-251.7v14.8h-3.1v-14.8H824.8z"/>
		
			<linearGradient id="SVGID_00000001659865773312711100000009973478921343487921_" gradientUnits="userSpaceOnUse" x1="835.5701" y1="-491.3618" x2="835.5701" y2="-464.058" gradientTransform="matrix(1 0 0 1 0 230)">
			<stop  offset="0" style="stop-color:#7C7C7C"/>
			<stop  offset="0.53" style="stop-color:#E3E3E3"/>
			<stop  offset="1" style="stop-color:#7C7C7C"/>
		</linearGradient>
		<path style="fill:url(#SVGID_00000001659865773312711100000009973478921343487921_);" d="M839.4-251.2c0.9,0.5,1.7,1.2,2.2,2.1
			c0.5,0.9,0.8,2.1,0.8,3.4v8.8h-3v-8.3c0-1.3-0.3-2.4-1-3.1c-0.7-0.7-1.6-1.1-2.7-1.1c-1.2,0-2.1,0.4-2.7,1.1s-1,1.7-1,3.1v8.3
			h-3.1v-14.8h3.1v1.7c0.5-0.6,1.2-1.1,1.9-1.4c0.8-0.3,1.6-0.5,2.5-0.5C837.4-251.9,838.5-251.7,839.4-251.2z"/>
		
			<linearGradient id="SVGID_00000172425493097867673200000010331446078369162899_" gradientUnits="userSpaceOnUse" x1="852.845" y1="-491.3618" x2="852.845" y2="-464.058" gradientTransform="matrix(1 0 0 1 0 230)">
			<stop  offset="0" style="stop-color:#7C7C7C"/>
			<stop  offset="0.53" style="stop-color:#E3E3E3"/>
			<stop  offset="1" style="stop-color:#7C7C7C"/>
		</linearGradient>
		<path style="fill:url(#SVGID_00000172425493097867673200000010331446078369162899_);" d="M855.3-251.2c0.9,0.5,1.6,1,2.1,1.7v-2.1
			h3.1v15.1c0,1.4-0.3,2.6-0.9,3.6s-1.4,1.9-2.5,2.5c-1.1,0.6-2.4,0.9-3.9,0.9c-2,0-3.7-0.5-5-1.4c-1.3-0.9-2.1-2.2-2.3-3.8h3
			c0.2,0.8,0.7,1.4,1.5,1.9c0.8,0.5,1.7,0.7,2.7,0.7c1.2,0,2.2-0.4,3-1.1s1.2-1.9,1.2-3.3v-2.5c-0.5,0.7-1.2,1.3-2.1,1.8
			c-0.9,0.5-1.9,0.7-3,0.7c-1.3,0-2.5-0.3-3.5-1s-1.9-1.6-2.5-2.8c-0.6-1.2-0.9-2.5-0.9-4s0.3-2.8,0.9-4s1.5-2,2.5-2.7s2.2-1,3.5-1
			C853.4-251.9,854.4-251.7,855.3-251.2z M856.7-246.9c-0.4-0.8-1-1.3-1.7-1.7c-0.7-0.4-1.4-0.6-2.2-0.6c-0.8,0-1.5,0.2-2.2,0.6
			c-0.7,0.4-1.2,0.9-1.7,1.7c-0.4,0.7-0.6,1.6-0.6,2.6s0.2,1.9,0.6,2.7s1,1.4,1.7,1.8s1.4,0.6,2.2,0.6c0.8,0,1.5-0.2,2.2-0.6
			s1.2-1,1.7-1.7c0.4-0.8,0.6-1.6,0.6-2.7C857.4-245.3,857.2-246.2,856.7-246.9z"/>
		
			<linearGradient id="SVGID_00000103239159074106026180000012475850047895608481_" gradientUnits="userSpaceOnUse" x1="869.62" y1="-491.3618" x2="869.62" y2="-464.058" gradientTransform="matrix(1 0 0 1 0 230)">
			<stop  offset="0" style="stop-color:#7C7C7C"/>
			<stop  offset="0.53" style="stop-color:#E3E3E3"/>
			<stop  offset="1" style="stop-color:#7C7C7C"/>
		</linearGradient>
		<path style="fill:url(#SVGID_00000103239159074106026180000012475850047895608481_);" d="M866.7-237.2c-0.9-0.4-1.7-1-2.2-1.7
			c-0.5-0.7-0.8-1.5-0.9-2.4h3.2c0,0.6,0.3,1.1,0.9,1.6c0.5,0.4,1.2,0.6,2.1,0.6c0.9,0,1.5-0.2,2-0.5c0.5-0.3,0.7-0.8,0.7-1.3
			c0-0.6-0.3-1-0.8-1.2c-0.5-0.3-1.4-0.6-2.5-0.9c-1.1-0.3-2-0.6-2.7-0.9c-0.7-0.3-1.3-0.7-1.8-1.3s-0.8-1.4-0.8-2.3
			c0-0.8,0.2-1.5,0.7-2.2s1.1-1.2,2-1.6s1.9-0.6,3-0.6c1.7,0,3,0.4,4.1,1.3c1,0.9,1.6,2,1.7,3.5h-3.1c0-0.7-0.3-1.2-0.8-1.6
			c-0.5-0.4-1.1-0.6-2-0.6c-0.8,0-1.4,0.1-1.8,0.5c-0.4,0.3-0.7,0.7-0.7,1.2c0,0.4,0.1,0.7,0.4,1s0.6,0.5,1,0.6s1,0.4,1.8,0.6
			c1.1,0.3,2,0.6,2.7,0.9c0.7,0.3,1.3,0.7,1.8,1.3c0.5,0.6,0.8,1.3,0.8,2.3c0,0.8-0.2,1.6-0.7,2.3s-1.1,1.2-2,1.6s-1.8,0.6-3,0.6
			C868.7-236.6,867.7-236.8,866.7-237.2z"/>
	</g>
	<g class="st2">
		
			<linearGradient id="SVGID_00000098208494902135491240000001703870035731231127_" gradientUnits="userSpaceOnUse" x1="742.1077" y1="-532.085" x2="805.5086" y2="-532.085" gradientTransform="matrix(1 0 0 1 0 230)">
			<stop  offset="0" style="stop-color:#7C7C7C"/>
			<stop  offset="0.46" style="stop-color:#E3E3E3"/>
			<stop  offset="0.6" style="stop-color:#EAEAEA"/>
			<stop  offset="1" style="stop-color:#7C7C7C"/>
		</linearGradient>
		<path style="fill:url(#SVGID_00000098208494902135491240000001703870035731231127_);" d="M766.1-281.8l-0.1,11.4
			c8.3-1,15-2.4,20.3-4.4c7.7-2.9,13.2-6.5,16.3-11c3.1-4.5,3.7-9.4,1.8-14.6c-1.7-4.5-4.3-7.4-7.8-8.5c-3.5-1.1-10.3-1.5-20.5-1.1
			c-6.7,0.2-11.7,0-15-0.8c-3.2-0.7-6.3-2.2-9.1-4.4c-2.7-2.2-4.8-5.1-6.2-8.8c-1.4-3.9-1.8-7.2-1-9.9c-3,4.8-3.5,10.1-1.3,15.8
			c1.4,3.8,3.6,6.8,6.7,9.2c3,2.3,6.3,3.7,9.8,4.2c1.5,0.2,3.3,0.4,5.7,0.4c-0.1,1.2-0.9,4-5,5.1c4.5,0.7,5.4,3.7,5.6,4.7
			L766.1-281.8z M771.2-299.8c-4.2-0.6-5.3-3.3-5.5-4.5c2.9,0.1,6.4,0.1,10.5,0c8.2-0.2,13.9,0.2,17,1.1c3,0.8,5,2.7,6.1,5.6
			c1,2.8,0.4,5.7-1.9,8.8c-2.2,3.1-5.7,5.5-10.3,7.2c-1.4,0.5-2.8,1-4.2,1.3c-0.6,0.1-1.2,0.2-1.8,0.3c-0.4,0.1-0.8,0.2-1.2,0.2
			c-11.9,1.2-13.6-11.2-13.8-14.6C766.2-295.4,766.8-298.5,771.2-299.8z"/>
		
			<linearGradient id="SVGID_00000178885357859038611260000007227065946312482219_" gradientUnits="userSpaceOnUse" x1="751.6014" y1="-555.3701" x2="814.9924" y2="-555.3701" gradientTransform="matrix(1 0 0 1 0 230)">
			<stop  offset="0" style="stop-color:#7C7C7C"/>
			<stop  offset="0.46" style="stop-color:#E3E3E3"/>
			<stop  offset="0.6" style="stop-color:#EAEAEA"/>
			<stop  offset="1" style="stop-color:#7C7C7C"/>
		</linearGradient>
		<path style="fill:url(#SVGID_00000178885357859038611260000007227065946312482219_);" d="M781-317.5c6.7-0.2,11.7,0,15,0.8
			c3.2,0.7,6.3,2.2,9.1,4.4c2.7,2.2,4.8,5.1,6.2,8.8c1.4,3.9,1.8,7.2,1,9.9c3-4.8,3.5-10.1,1.3-15.8c-1.4-3.8-3.6-6.8-6.7-9.2
			c-3-2.3-6.3-3.7-9.8-4.2c-3.2-0.5-8.7-0.6-16.3-0.5c-8.2,0.2-13.9-0.2-17-1.1c-3-0.8-5-2.7-6.1-5.6c-1-2.8-0.4-5.7,1.9-8.8
			c2.2-3.1,5.7-5.5,10.3-7.2c1.4-0.5,2.8-1,4.2-1.3c0.6-0.1,1.2-0.2,1.8-0.3c0.4-0.1,0.8-0.2,1.2-0.2c3.4-0.3,6,0.5,7.9,1.8
			c7,5.1,5.1,18.7,5.1,18.7l0.8,0.1l0-11.3l0,0l0-7.3l0.1-11.4c-8.3,1-15,2.4-20.3,4.4c-7.7,2.9-13.2,6.5-16.3,11
			c-3.1,4.5-3.7,9.4-1.8,14.6c1.7,4.5,4.3,7.4,7.8,8.5C764.1-317.5,770.9-317.2,781-317.5z"/>
	</g>
</g>
<rect x="30" y="1871.9" class="st1" width="999.2" height="657.2"/>
<g class="st1">
	<g class="st2">
		
			<linearGradient id="SVGID_00000163048122469382856630000018339463265346540975_" gradientUnits="userSpaceOnUse" x1="435.77" y1="2004.9771" x2="435.77" y2="2034.4263" gradientTransform="matrix(1 0 0 1 0 230)">
			<stop  offset="0" style="stop-color:#7C7C7C"/>
			<stop  offset="0.53" style="stop-color:#E3E3E3"/>
			<stop  offset="1" style="stop-color:#7C7C7C"/>
		</linearGradient>
		<path style="fill:url(#SVGID_00000163048122469382856630000018339463265346540975_);" d="M427.3,2246c0.9-1.6,2.2-2.8,3.7-3.7
			c1.6-0.9,3.3-1.3,5.2-1.3c2.1,0,4.1,0.5,5.7,1.6s2.9,2.6,3.6,4.5h-4c-0.5-1.1-1.2-1.9-2.2-2.4c-0.9-0.5-2-0.8-3.2-0.8
			c-1.3,0-2.5,0.3-3.6,0.9c-1,0.6-1.9,1.5-2.5,2.6c-0.6,1.1-0.9,2.4-0.9,3.9s0.3,2.8,0.9,3.9c0.6,1.1,1.4,2,2.5,2.6
			c1,0.6,2.2,0.9,3.6,0.9c1.2,0,2.3-0.3,3.2-0.8s1.6-1.3,2.2-2.4h4c-0.8,1.9-2,3.4-3.6,4.5c-1.7,1.1-3.6,1.6-5.7,1.6
			c-1.9,0-3.6-0.4-5.2-1.3c-1.6-0.9-2.8-2.1-3.7-3.7c-0.9-1.6-1.4-3.3-1.4-5.3S426.4,2247.5,427.3,2246z"/>
		
			<linearGradient id="SVGID_00000079471504006305465430000016204859629436159138_" gradientUnits="userSpaceOnUse" x1="455.735" y1="2004.9771" x2="455.735" y2="2034.4263" gradientTransform="matrix(1 0 0 1 0 230)">
			<stop  offset="0" style="stop-color:#7C7C7C"/>
			<stop  offset="0.53" style="stop-color:#E3E3E3"/>
			<stop  offset="1" style="stop-color:#7C7C7C"/>
		</linearGradient>
		<path style="fill:url(#SVGID_00000079471504006305465430000016204859629436159138_);" d="M463.9,2245.4l-9.8,23.5h-3.4l3.2-7.8
			l-6.3-15.7h3.7l4.5,12.2l4.7-12.2H463.9z"/>
		
			<linearGradient id="SVGID_00000062885794124513308960000003045255343478898352_" gradientUnits="userSpaceOnUse" x1="474.575" y1="2004.9771" x2="474.575" y2="2034.426" gradientTransform="matrix(1 0 0 1 0 230)">
			<stop  offset="0" style="stop-color:#7C7C7C"/>
			<stop  offset="0.53" style="stop-color:#E3E3E3"/>
			<stop  offset="1" style="stop-color:#7C7C7C"/>
		</linearGradient>
		<path style="fill:url(#SVGID_00000062885794124513308960000003045255343478898352_);" d="M472,2245.9c1-0.5,2.1-0.7,3.3-0.7
			c1.4,0,2.7,0.3,3.8,1c1.1,0.7,2,1.6,2.7,2.9s1,2.7,1,4.3c0,1.6-0.3,3-1,4.3s-1.6,2.2-2.7,3s-2.4,1.1-3.8,1.1
			c-1.2,0-2.3-0.2-3.3-0.7c-1-0.5-1.7-1.1-2.3-1.9v2.3h-3.3v-21.5h3.3v7.9C470.2,2247,471,2246.4,472,2245.9z M478.7,2250.5
			c-0.5-0.8-1-1.4-1.8-1.8c-0.7-0.4-1.5-0.6-2.4-0.6c-0.8,0-1.6,0.2-2.4,0.6c-0.7,0.4-1.3,1.1-1.8,1.9c-0.5,0.8-0.7,1.8-0.7,2.9
			s0.2,2.1,0.7,2.9c0.5,0.8,1.1,1.4,1.8,1.9c0.7,0.4,1.5,0.6,2.4,0.6c0.9,0,1.6-0.2,2.4-0.6c0.8-0.4,1.4-1.1,1.8-1.9
			c0.5-0.8,0.7-1.8,0.7-2.9S479.2,2251.3,478.7,2250.5z"/>
		
			<linearGradient id="SVGID_00000029746994565955476100000004704073297181399962_" gradientUnits="userSpaceOnUse" x1="492.8208" y1="2004.9771" x2="492.8208" y2="2034.4263" gradientTransform="matrix(1 0 0 1 0 230)">
			<stop  offset="0" style="stop-color:#7C7C7C"/>
			<stop  offset="0.53" style="stop-color:#E3E3E3"/>
			<stop  offset="1" style="stop-color:#7C7C7C"/>
		</linearGradient>
		<path style="fill:url(#SVGID_00000029746994565955476100000004704073297181399962_);" d="M500.6,2254.6h-12.2
			c0.1,1.3,0.6,2.3,1.4,3.1c0.9,0.8,1.9,1.2,3.1,1.2c1.8,0,3-0.8,3.8-2.2h3.6c-0.5,1.5-1.4,2.7-2.6,3.6c-1.3,0.9-2.8,1.4-4.7,1.4
			c-1.5,0-2.9-0.3-4.1-1s-2.2-1.6-2.8-2.9c-0.7-1.2-1-2.7-1-4.3c0-1.6,0.3-3.1,1-4.3s1.6-2.2,2.8-2.9c1.2-0.7,2.6-1,4.2-1
			c1.5,0,2.9,0.3,4,1s2.1,1.6,2.8,2.8s1,2.6,1,4.1C500.7,2253.6,500.7,2254.2,500.6,2254.6z M497.3,2252c0-1.2-0.5-2.2-1.3-2.9
			c-0.9-0.7-1.9-1.1-3.2-1.1c-1.1,0-2.1,0.4-2.9,1.1s-1.3,1.7-1.5,2.9L497.3,2252L497.3,2252L497.3,2252z"/>
		
			<linearGradient id="SVGID_00000052798983098373542990000013416997385270087834_" gradientUnits="userSpaceOnUse" x1="508.01" y1="2004.9771" x2="508.01" y2="2034.4263" gradientTransform="matrix(1 0 0 1 0 230)">
			<stop  offset="0" style="stop-color:#7C7C7C"/>
			<stop  offset="0.53" style="stop-color:#E3E3E3"/>
			<stop  offset="1" style="stop-color:#7C7C7C"/>
		</linearGradient>
		<path style="fill:url(#SVGID_00000052798983098373542990000013416997385270087834_);" d="M509.2,2245.8c0.8-0.4,1.8-0.7,2.9-0.7
			v3.4h-0.8c-1.3,0-2.3,0.3-3,1s-1,1.8-1,3.4v8.4H504v-16h3.3v2.3C507.8,2246.9,508.4,2246.3,509.2,2245.8z"/>
		
			<linearGradient id="SVGID_00000020377384040352674980000014061357382464914870_" gradientUnits="userSpaceOnUse" x1="529.2151" y1="2004.9771" x2="529.2151" y2="2034.426" gradientTransform="matrix(1 0 0 1 0 230)">
			<stop  offset="0" style="stop-color:#7C7C7C"/>
			<stop  offset="0.53" style="stop-color:#E3E3E3"/>
			<stop  offset="1" style="stop-color:#7C7C7C"/>
		</linearGradient>
		<path style="fill:url(#SVGID_00000020377384040352674980000014061357382464914870_);" d="M525.6,2260.9c-1.1-0.5-1.9-1.1-2.5-2
			s-0.9-1.9-0.9-3.1h3.5c0.1,0.9,0.4,1.6,1,2.1c0.6,0.6,1.5,0.8,2.6,0.8c1.1,0,2-0.3,2.7-0.8s1-1.3,1-2.1c0-0.7-0.2-1.2-0.6-1.6
			c-0.4-0.4-0.9-0.8-1.5-1c-0.6-0.2-1.4-0.5-2.5-0.8c-1.3-0.4-2.4-0.7-3.2-1.1s-1.5-0.9-2.1-1.7s-0.9-1.8-0.9-3
			c0-1.2,0.3-2.2,0.9-3.1s1.4-1.5,2.4-2c1-0.5,2.2-0.7,3.6-0.7c2,0,3.5,0.5,4.8,1.5s1.9,2.3,2.1,4h-3.7c-0.1-0.7-0.4-1.4-1-1.9
			c-0.6-0.5-1.5-0.8-2.5-0.8c-1,0-1.7,0.2-2.3,0.7c-0.6,0.5-0.9,1.2-0.9,2.1c0,0.6,0.2,1.1,0.6,1.5c0.4,0.4,0.9,0.7,1.4,0.9
			s1.4,0.5,2.4,0.8c1.3,0.4,2.4,0.7,3.3,1.1c0.8,0.4,1.6,0.9,2.2,1.7c0.6,0.8,0.9,1.8,0.9,3.1c0,1-0.3,2-0.8,2.9s-1.3,1.6-2.4,2.2
			s-2.3,0.8-3.7,0.8C528,2261.6,526.7,2261.4,525.6,2260.9z"/>
		
			<linearGradient id="SVGID_00000049180950998167314780000006112254689051699075_" gradientUnits="userSpaceOnUse" x1="541.855" y1="2004.9771" x2="541.855" y2="2034.426" gradientTransform="matrix(1 0 0 1 0 230)">
			<stop  offset="0" style="stop-color:#7C7C7C"/>
			<stop  offset="0.53" style="stop-color:#E3E3E3"/>
			<stop  offset="1" style="stop-color:#7C7C7C"/>
		</linearGradient>
		<path style="fill:url(#SVGID_00000049180950998167314780000006112254689051699075_);" d="M540.4,2242.7c-0.4-0.4-0.6-0.9-0.6-1.5
			s0.2-1.1,0.6-1.5s0.9-0.6,1.5-0.6c0.6,0,1.1,0.2,1.5,0.6c0.4,0.4,0.6,0.9,0.6,1.5s-0.2,1.1-0.6,1.5s-0.9,0.6-1.5,0.6
			C541.3,2243.3,540.8,2243.1,540.4,2242.7z M543.5,2245.4v16h-3.3v-16H543.5z"/>
		
			<linearGradient id="SVGID_00000033363713942871929480000012100237547931736975_" gradientUnits="userSpaceOnUse" x1="556.045" y1="2004.9771" x2="556.045" y2="2034.426" gradientTransform="matrix(1 0 0 1 0 230)">
			<stop  offset="0" style="stop-color:#7C7C7C"/>
			<stop  offset="0.53" style="stop-color:#E3E3E3"/>
			<stop  offset="1" style="stop-color:#7C7C7C"/>
		</linearGradient>
		<path style="fill:url(#SVGID_00000033363713942871929480000012100237547931736975_);" d="M553.5,2245.9c1-0.5,2.1-0.7,3.3-0.7
			c1.4,0,2.7,0.3,3.8,1s2,1.6,2.7,2.9c0.7,1.2,1,2.7,1,4.3c0,1.6-0.3,3-1,4.3s-1.6,2.2-2.7,3s-2.4,1.1-3.8,1.1
			c-1.2,0-2.3-0.2-3.3-0.7c-1-0.5-1.7-1.1-2.3-1.9v2.3h-3.3v-21.5h3.3v7.9C551.7,2247,552.5,2246.4,553.5,2245.9z M560.2,2250.5
			c-0.5-0.8-1-1.4-1.8-1.8c-0.7-0.4-1.5-0.6-2.4-0.6c-0.8,0-1.6,0.2-2.4,0.6c-0.7,0.4-1.3,1.1-1.8,1.9c-0.5,0.8-0.7,1.8-0.7,2.9
			s0.2,2.1,0.7,2.9c0.5,0.8,1.1,1.4,1.8,1.9c0.7,0.4,1.5,0.6,2.4,0.6c0.8,0,1.7-0.2,2.4-0.6c0.8-0.4,1.3-1.1,1.8-1.9
			c0.5-0.8,0.7-1.8,0.7-2.9S560.7,2251.3,560.2,2250.5z"/>
		
			<linearGradient id="SVGID_00000011746570629062506130000017350343292456172171_" gradientUnits="userSpaceOnUse" x1="569.175" y1="2004.9771" x2="569.175" y2="2034.426" gradientTransform="matrix(1 0 0 1 0 230)">
			<stop  offset="0" style="stop-color:#7C7C7C"/>
			<stop  offset="0.53" style="stop-color:#E3E3E3"/>
			<stop  offset="1" style="stop-color:#7C7C7C"/>
		</linearGradient>
		<path style="fill:url(#SVGID_00000011746570629062506130000017350343292456172171_);" d="M570.8,2239.9v21.5h-3.3v-21.5H570.8z"/>
		
			<linearGradient id="SVGID_00000170986959459488674140000005629735982108806545_" gradientUnits="userSpaceOnUse" x1="576.855" y1="2004.9771" x2="576.855" y2="2034.426" gradientTransform="matrix(1 0 0 1 0 230)">
			<stop  offset="0" style="stop-color:#7C7C7C"/>
			<stop  offset="0.53" style="stop-color:#E3E3E3"/>
			<stop  offset="1" style="stop-color:#7C7C7C"/>
		</linearGradient>
		<path style="fill:url(#SVGID_00000170986959459488674140000005629735982108806545_);" d="M575.4,2242.7c-0.4-0.4-0.6-0.9-0.6-1.5
			s0.2-1.1,0.6-1.5s0.9-0.6,1.5-0.6c0.6,0,1.1,0.2,1.5,0.6c0.4,0.4,0.6,0.9,0.6,1.5s-0.2,1.1-0.6,1.5s-0.9,0.6-1.5,0.6
			C576.3,2243.3,575.8,2243.1,575.4,2242.7z M578.5,2245.4v16h-3.3v-16H578.5z"/>
		
			<linearGradient id="SVGID_00000178194308939428945970000016240349247439185024_" gradientUnits="userSpaceOnUse" x1="590.165" y1="2004.9771" x2="590.165" y2="2034.4263" gradientTransform="matrix(1 0 0 1 0 230)">
			<stop  offset="0" style="stop-color:#7C7C7C"/>
			<stop  offset="0.53" style="stop-color:#E3E3E3"/>
			<stop  offset="1" style="stop-color:#7C7C7C"/>
		</linearGradient>
		<path style="fill:url(#SVGID_00000178194308939428945970000016240349247439185024_);" d="M594.3,2245.9c1,0.5,1.8,1.3,2.3,2.3
			c0.6,1,0.8,2.3,0.8,3.7v9.4h-3.3v-8.9c0-1.4-0.4-2.5-1.1-3.3c-0.7-0.8-1.7-1.1-2.9-1.1s-2.2,0.4-3,1.1c-0.7,0.8-1.1,1.9-1.1,3.3
			v8.9h-3.3v-16h3.3v1.8c0.5-0.7,1.2-1.2,2.1-1.5s1.7-0.6,2.7-0.6C592.2,2245.1,593.3,2245.4,594.3,2245.9z"/>
		
			<linearGradient id="SVGID_00000176027558391079894640000009341739857879105975_" gradientUnits="userSpaceOnUse" x1="608.81" y1="2004.9771" x2="608.81" y2="2034.426" gradientTransform="matrix(1 0 0 1 0 230)">
			<stop  offset="0" style="stop-color:#7C7C7C"/>
			<stop  offset="0.53" style="stop-color:#E3E3E3"/>
			<stop  offset="1" style="stop-color:#7C7C7C"/>
		</linearGradient>
		<path style="fill:url(#SVGID_00000176027558391079894640000009341739857879105975_);" d="M611.4,2245.9c1,0.5,1.7,1.1,2.2,1.8
			v-2.3h3.3v16.2c0,1.5-0.3,2.8-0.9,3.9s-1.5,2.1-2.7,2.7c-1.2,0.7-2.6,1-4.2,1c-2.2,0-4-0.5-5.4-1.5c-1.4-1-2.2-2.4-2.4-4.1h3.3
			c0.2,0.8,0.8,1.5,1.6,2s1.8,0.8,3,0.8c1.3,0,2.4-0.4,3.2-1.2c0.8-0.8,1.2-2,1.2-3.5v-2.7c-0.6,0.8-1.3,1.4-2.3,1.9s-2,0.8-3.3,0.8
			c-1.4,0-2.7-0.4-3.8-1.1s-2.1-1.7-2.7-3s-1-2.7-1-4.3s0.3-3,1-4.3s1.6-2.2,2.7-2.9c1.2-0.7,2.4-1,3.8-1
			C609.4,2245.1,610.5,2245.4,611.4,2245.9z M613,2250.5c-0.5-0.8-1-1.4-1.8-1.9c-0.7-0.4-1.5-0.6-2.4-0.6s-1.6,0.2-2.4,0.6
			c-0.7,0.4-1.3,1-1.8,1.8c-0.5,0.8-0.7,1.8-0.7,2.9s0.2,2.1,0.7,2.9c0.5,0.8,1.1,1.5,1.8,1.9c0.7,0.4,1.5,0.6,2.4,0.6
			c0.8,0,1.7-0.2,2.4-0.6s1.3-1.1,1.8-1.9c0.5-0.8,0.7-1.8,0.7-2.9C613.7,2252.3,613.5,2251.3,613,2250.5z"/>
		
			<linearGradient id="SVGID_00000026129729553309833760000009650129515850404777_" gradientUnits="userSpaceOnUse" x1="626.8849" y1="2004.9771" x2="626.8849" y2="2034.4263" gradientTransform="matrix(1 0 0 1 0 230)">
			<stop  offset="0" style="stop-color:#7C7C7C"/>
			<stop  offset="0.53" style="stop-color:#E3E3E3"/>
			<stop  offset="1" style="stop-color:#7C7C7C"/>
		</linearGradient>
		<path style="fill:url(#SVGID_00000026129729553309833760000009650129515850404777_);" d="M623.8,2261c-1-0.4-1.8-1.1-2.4-1.9
			c-0.6-0.8-0.9-1.7-0.9-2.6h3.4c0.1,0.7,0.4,1.2,1,1.7c0.6,0.5,1.3,0.7,2.2,0.7c0.9,0,1.7-0.2,2.2-0.5c0.5-0.4,0.8-0.8,0.8-1.4
			c0-0.6-0.3-1.1-0.9-1.3s-1.5-0.6-2.7-1c-1.2-0.3-2.2-0.6-2.9-1s-1.4-0.8-2-1.4c-0.5-0.6-0.8-1.5-0.8-2.5c0-0.9,0.2-1.6,0.8-2.3
			c0.5-0.7,1.2-1.3,2.2-1.7s2-0.6,3.2-0.6c1.8,0,3.3,0.5,4.4,1.4c1.1,0.9,1.7,2.2,1.8,3.8h-3.3c-0.1-0.7-0.3-1.3-0.9-1.7
			c-0.5-0.4-1.2-0.6-2.1-0.6c-0.9,0-1.5,0.2-2,0.5c-0.5,0.3-0.7,0.8-0.7,1.3c0,0.4,0.2,0.8,0.5,1.1s0.7,0.5,1.1,0.7
			c0.4,0.2,1.1,0.4,2,0.6c1.2,0.3,2.1,0.6,2.9,0.9c0.8,0.3,1.4,0.8,1.9,1.4c0.5,0.6,0.8,1.4,0.8,2.5c0,0.9-0.2,1.7-0.8,2.4
			c-0.5,0.7-1.2,1.3-2.1,1.7c-0.9,0.4-2,0.6-3.2,0.6C625.9,2261.7,624.8,2261.4,623.8,2261z"/>
	</g>
	<g class="st2">
		
			<linearGradient id="SVGID_00000073703516352670681490000011096127362385203595_" gradientUnits="userSpaceOnUse" x1="489.368" y1="1961.0551" x2="557.7462" y2="1961.0551" gradientTransform="matrix(1 0 0 1 0 230)">
			<stop  offset="0" style="stop-color:#7C7C7C"/>
			<stop  offset="0.46" style="stop-color:#E3E3E3"/>
			<stop  offset="0.6" style="stop-color:#EAEAEA"/>
			<stop  offset="1" style="stop-color:#7C7C7C"/>
		</linearGradient>
		<path style="fill:url(#SVGID_00000073703516352670681490000011096127362385203595_);" d="M515.2,2213l-0.1,12.3
			c8.9-1.1,16.2-2.6,21.9-4.7c8.3-3.1,14.2-7,17.6-11.8c3.4-4.9,4-10.1,1.9-15.8c-1.8-4.9-4.6-7.9-8.4-9.2
			c-3.8-1.2-11.2-1.6-22.1-1.2c-7.2,0.3-12.7,0-16.2-0.8c-3.5-0.8-6.8-2.4-9.9-4.8c-3-2.4-5.2-5.6-6.6-9.5
			c-1.5-4.2-1.9-7.8-1.1-10.7c-3.2,5.2-3.7,10.9-1.5,17c1.5,4.1,3.9,7.4,7.2,9.9c3.3,2.4,6.8,3.9,10.5,4.5c1.6,0.2,3.6,0.4,6.1,0.5
			c-0.1,1.3-0.9,4.3-5.4,5.5c4.9,0.7,5.8,4,6,5.1L515.2,2213z M520.7,2193.6c-4.5-0.7-5.7-3.6-6-4.8c3.1,0.1,6.9,0.1,11.4,0
			c8.9-0.2,15,0.2,18.4,1.2c3.2,0.9,5.5,2.9,6.6,6.1c1.1,3,0.4,6.1-2.1,9.4c-2.4,3.3-6.1,5.9-11.1,7.7c-1.5,0.6-3,1-4.5,1.4
			c-0.7,0.2-1.3,0.2-1.9,0.4c-0.4,0.1-0.8,0.2-1.2,0.2c-12.8,1.3-14.6-12.1-14.9-15.8C515.4,2198.2,515.9,2194.9,520.7,2193.6z"/>
		
			<linearGradient id="SVGID_00000140714150969607417900000008717192096550337954_" gradientUnits="userSpaceOnUse" x1="499.5994" y1="1935.9601" x2="567.9718" y2="1935.9601" gradientTransform="matrix(1 0 0 1 0 230)">
			<stop  offset="0" style="stop-color:#7C7C7C"/>
			<stop  offset="0.46" style="stop-color:#E3E3E3"/>
			<stop  offset="0.6" style="stop-color:#EAEAEA"/>
			<stop  offset="1" style="stop-color:#7C7C7C"/>
		</linearGradient>
		<path style="fill:url(#SVGID_00000140714150969607417900000008717192096550337954_);" d="M531.3,2174.4c7.2-0.3,12.7,0,16.2,0.8
			c3.5,0.8,6.8,2.4,9.8,4.8c3,2.4,5.2,5.6,6.6,9.5c1.5,4.2,1.9,7.8,1.1,10.7c3.2-5.2,3.7-10.9,1.5-17c-1.5-4.1-3.9-7.4-7.2-9.9
			c-3.3-2.4-6.8-3.9-10.5-4.5c-3.5-0.5-9.4-0.7-17.6-0.5c-8.9,0.2-15-0.2-18.4-1.2c-3.2-0.9-5.5-2.9-6.6-6.1c-1.1-3-0.4-6.1,2.1-9.4
			c2.4-3.3,6.1-5.9,11.1-7.7c1.5-0.6,3-1,4.5-1.4c0.7-0.2,1.3-0.2,1.9-0.4c0.4-0.1,0.8-0.2,1.2-0.2c3.7-0.4,6.5,0.5,8.6,2
			c7.6,5.5,5.5,20.2,5.5,20.2l0.8,0.1l0-12.1l0,0l0-7.9l0.1-12.3c-8.9,1.1-16.2,2.6-21.9,4.7c-8.4,3.1-14.2,7-17.6,11.8
			c-3.4,4.9-4,10.1-1.9,15.8c1.8,4.9,4.6,7.9,8.4,9.2C513,2174.4,520.4,2174.8,531.3,2174.4z"/>
	</g>
</g>
<rect x="30" y="-126.9" class="st1" width="499.6" height="332.8"/>
<g>
	<g>
		
			<linearGradient id="SVGID_00000083064996887342572290000011224193467019624584_" gradientUnits="userSpaceOnUse" x1="80.605" y1="-210.1621" x2="80.605" y2="-181.0616" gradientTransform="matrix(1 0 0 1 0 230)">
			<stop  offset="0" style="stop-color:#7C7C7C"/>
			<stop  offset="0.53" style="stop-color:#E3E3E3"/>
			<stop  offset="1" style="stop-color:#7C7C7C"/>
		</linearGradient>
		<path style="fill:url(#SVGID_00000083064996887342572290000011224193467019624584_);" d="M72.2,30.7c0.9-1.5,2.1-2.8,3.7-3.6
			s3.3-1.3,5.1-1.3c2.1,0,4,0.5,5.7,1.6c1.7,1,2.8,2.5,3.6,4.4h-3.9c-0.5-1-1.2-1.8-2.2-2.4c-0.9-0.5-2-0.8-3.2-0.8
			c-1.3,0-2.5,0.3-3.5,0.9s-1.8,1.4-2.4,2.6s-0.9,2.4-0.9,3.9s0.3,2.8,0.9,3.9c0.6,1.1,1.4,2,2.4,2.6c1,0.6,2.2,0.9,3.5,0.9
			c1.2,0,2.3-0.3,3.2-0.8s1.6-1.3,2.2-2.3h3.9c-0.8,1.9-1.9,3.4-3.6,4.4c-1.7,1-3.5,1.5-5.7,1.5c-1.9,0-3.6-0.4-5.1-1.3
			s-2.8-2.1-3.7-3.6s-1.4-3.3-1.4-5.2C70.9,34,71.3,32.2,72.2,30.7z"/>
		
			<linearGradient id="SVGID_00000080916392823670770160000011509391295298534053_" gradientUnits="userSpaceOnUse" x1="100.33" y1="-210.1621" x2="100.33" y2="-181.0618" gradientTransform="matrix(1 0 0 1 0 230)">
			<stop  offset="0" style="stop-color:#7C7C7C"/>
			<stop  offset="0.53" style="stop-color:#E3E3E3"/>
			<stop  offset="1" style="stop-color:#7C7C7C"/>
		</linearGradient>
		<path style="fill:url(#SVGID_00000080916392823670770160000011509391295298534053_);" d="M108.4,30.1l-9.7,23.2h-3.4l3.2-7.7
			l-6.2-15.5h3.6l4.4,12l4.6-12L108.4,30.1L108.4,30.1z"/>
		
			<linearGradient id="SVGID_00000111193136845994048420000017072907058901328773_" gradientUnits="userSpaceOnUse" x1="118.95" y1="-210.1621" x2="118.95" y2="-181.0619" gradientTransform="matrix(1 0 0 1 0 230)">
			<stop  offset="0" style="stop-color:#7C7C7C"/>
			<stop  offset="0.53" style="stop-color:#E3E3E3"/>
			<stop  offset="1" style="stop-color:#7C7C7C"/>
		</linearGradient>
		<path style="fill:url(#SVGID_00000111193136845994048420000017072907058901328773_);" d="M116.4,30.6c1-0.5,2-0.7,3.2-0.7
			c1.4,0,2.7,0.3,3.8,1s2,1.6,2.7,2.9s1,2.6,1,4.2s-0.3,3-1,4.3s-1.6,2.2-2.7,2.9c-1.1,0.7-2.4,1-3.8,1c-1.2,0-2.3-0.2-3.3-0.7
			s-1.7-1.1-2.2-1.8v2.3h-3.3V24.7h3.3v7.8C114.7,31.7,115.4,31.1,116.4,30.6z M123,35.2c-0.4-0.8-1-1.4-1.8-1.8s-1.5-0.6-2.4-0.6
			c-0.8,0-1.6,0.2-2.3,0.6c-0.7,0.4-1.3,1-1.8,1.8c-0.4,0.8-0.7,1.8-0.7,2.8s0.2,2,0.7,2.8c0.4,0.8,1,1.4,1.8,1.8s1.5,0.6,2.3,0.6
			c0.8,0,1.6-0.2,2.4-0.7c0.7-0.4,1.3-1.1,1.8-1.9s0.7-1.8,0.7-2.9C123.7,36.9,123.5,36,123,35.2z"/>
		
			<linearGradient id="SVGID_00000059990364950070111940000015702479559002160308_" gradientUnits="userSpaceOnUse" x1="136.99" y1="-210.1621" x2="136.99" y2="-181.0619" gradientTransform="matrix(1 0 0 1 0 230)">
			<stop  offset="0" style="stop-color:#7C7C7C"/>
			<stop  offset="0.53" style="stop-color:#E3E3E3"/>
			<stop  offset="1" style="stop-color:#7C7C7C"/>
		</linearGradient>
		<path style="fill:url(#SVGID_00000059990364950070111940000015702479559002160308_);" d="M144.6,39.3h-12.1c0.1,1.3,0.6,2.3,1.4,3
			c0.8,0.8,1.9,1.2,3.1,1.2c1.8,0,3-0.7,3.7-2.2h3.5c-0.5,1.5-1.3,2.6-2.6,3.6c-1.2,0.9-2.8,1.4-4.7,1.4c-1.5,0-2.9-0.3-4.1-1
			s-2.1-1.6-2.8-2.9s-1-2.7-1-4.3c0-1.6,0.3-3,1-4.3c0.7-1.2,1.6-2.2,2.8-2.9c1.2-0.7,2.6-1,4.1-1c1.5,0,2.8,0.3,4,1
			c1.2,0.6,2.1,1.6,2.7,2.7c0.6,1.2,1,2.5,1,4.1C144.8,38.3,144.7,38.8,144.6,39.3z M141.4,36.6c0-1.2-0.4-2.2-1.3-2.9
			s-1.9-1.1-3.1-1.1c-1.1,0-2.1,0.4-2.9,1.1c-0.8,0.7-1.3,1.7-1.4,2.9L141.4,36.6L141.4,36.6L141.4,36.6z"/>
		
			<linearGradient id="SVGID_00000040576500338814459510000001776861296870283944_" gradientUnits="userSpaceOnUse" x1="151.98" y1="-210.1621" x2="151.98" y2="-181.0619" gradientTransform="matrix(1 0 0 1 0 230)">
			<stop  offset="0" style="stop-color:#7C7C7C"/>
			<stop  offset="0.53" style="stop-color:#E3E3E3"/>
			<stop  offset="1" style="stop-color:#7C7C7C"/>
		</linearGradient>
		<path style="fill:url(#SVGID_00000040576500338814459510000001776861296870283944_);" d="M153.2,30.6c0.8-0.5,1.7-0.7,2.8-0.7v3.4
			h-0.8c-1.3,0-2.2,0.3-2.9,1s-1,1.8-1,3.4V46H148V30.2h3.3v2.3C151.7,31.6,152.4,31,153.2,30.6z"/>
		
			<linearGradient id="SVGID_00000047773311120886521850000007833097757586231973_" gradientUnits="userSpaceOnUse" x1="172.945" y1="-210.1621" x2="172.945" y2="-181.0618" gradientTransform="matrix(1 0 0 1 0 230)">
			<stop  offset="0" style="stop-color:#7C7C7C"/>
			<stop  offset="0.53" style="stop-color:#E3E3E3"/>
			<stop  offset="1" style="stop-color:#7C7C7C"/>
		</linearGradient>
		<path style="fill:url(#SVGID_00000047773311120886521850000007833097757586231973_);" d="M169.4,45.5c-1.1-0.5-1.9-1.1-2.5-2
			s-0.9-1.9-0.9-3h3.5c0.1,0.9,0.4,1.6,1,2.1s1.4,0.8,2.5,0.8c1.1,0,2-0.3,2.6-0.8s0.9-1.2,0.9-2.1c0-0.7-0.2-1.2-0.6-1.6
			c-0.4-0.4-0.9-0.8-1.5-1c-0.6-0.2-1.4-0.5-2.4-0.8c-1.3-0.3-2.4-0.7-3.2-1c-0.8-0.3-1.5-0.9-2.1-1.7s-0.9-1.7-0.9-3
			c0-1.1,0.3-2.1,0.9-3s1.4-1.5,2.4-2s2.2-0.7,3.6-0.7c1.9,0,3.5,0.5,4.8,1.5c1.2,1,1.9,2.3,2.1,4h-3.6c-0.1-0.7-0.4-1.4-1-1.9
			c-0.6-0.5-1.5-0.8-2.5-0.8c-0.9,0-1.7,0.2-2.3,0.7s-0.9,1.2-0.9,2.1c0,0.6,0.2,1.1,0.6,1.5c0.4,0.4,0.9,0.7,1.4,0.9
			c0.6,0.2,1.4,0.5,2.4,0.8c1.3,0.4,2.4,0.7,3.2,1.1c0.8,0.4,1.5,0.9,2.1,1.7s0.9,1.8,0.9,3c0,1-0.3,2-0.8,2.9
			c-0.5,0.9-1.3,1.6-2.4,2.2s-2.3,0.8-3.7,0.8C171.7,46.2,170.5,45.9,169.4,45.5z"/>
		
			<linearGradient id="SVGID_00000182498304990440921010000014184631796994372744_" gradientUnits="userSpaceOnUse" x1="185.425" y1="-210.1621" x2="185.425" y2="-181.0619" gradientTransform="matrix(1 0 0 1 0 230)">
			<stop  offset="0" style="stop-color:#7C7C7C"/>
			<stop  offset="0.53" style="stop-color:#E3E3E3"/>
			<stop  offset="1" style="stop-color:#7C7C7C"/>
		</linearGradient>
		<path style="fill:url(#SVGID_00000182498304990440921010000014184631796994372744_);" d="M183.9,27.5c-0.4-0.4-0.6-0.9-0.6-1.5
			s0.2-1.1,0.6-1.5s0.9-0.6,1.5-0.6c0.6,0,1.1,0.2,1.5,0.6s0.6,0.9,0.6,1.5s-0.2,1.1-0.6,1.5s-0.9,0.6-1.5,0.6
			C184.8,28,184.4,27.9,183.9,27.5z M187,30.1V46h-3.3V30.2C183.8,30.2,187,30.2,187,30.1z"/>
		
			<linearGradient id="SVGID_00000183240684423195069980000008351036521149832320_" gradientUnits="userSpaceOnUse" x1="199.46" y1="-210.1621" x2="199.46" y2="-181.0619" gradientTransform="matrix(1 0 0 1 0 230)">
			<stop  offset="0" style="stop-color:#7C7C7C"/>
			<stop  offset="0.53" style="stop-color:#E3E3E3"/>
			<stop  offset="1" style="stop-color:#7C7C7C"/>
		</linearGradient>
		<path style="fill:url(#SVGID_00000183240684423195069980000008351036521149832320_);" d="M196.9,30.6c1-0.5,2-0.7,3.2-0.7
			c1.4,0,2.7,0.3,3.8,1s2,1.6,2.7,2.9s1,2.6,1,4.2s-0.3,3-1,4.3s-1.6,2.2-2.7,2.9c-1.1,0.7-2.4,1-3.8,1c-1.2,0-2.3-0.2-3.3-0.7
			s-1.7-1.1-2.2-1.8v2.3h-3.3V24.7h3.3v7.8C195.2,31.7,195.9,31.1,196.9,30.6z M203.6,35.2c-0.4-0.8-1-1.4-1.8-1.8s-1.5-0.6-2.4-0.6
			c-0.8,0-1.6,0.2-2.3,0.6s-1.3,1-1.8,1.8c-0.4,0.8-0.7,1.8-0.7,2.8s0.2,2,0.7,2.8c0.4,0.8,1,1.4,1.8,1.8s1.5,0.6,2.3,0.6
			c0.8,0,1.6-0.2,2.4-0.7c0.7-0.4,1.3-1.1,1.8-1.9s0.7-1.8,0.7-2.9C204.2,36.9,204,36,203.6,35.2z"/>
		
			<linearGradient id="SVGID_00000121275250993622881780000016363296474782293183_" gradientUnits="userSpaceOnUse" x1="212.425" y1="-210.1621" x2="212.425" y2="-181.0619" gradientTransform="matrix(1 0 0 1 0 230)">
			<stop  offset="0" style="stop-color:#7C7C7C"/>
			<stop  offset="0.53" style="stop-color:#E3E3E3"/>
			<stop  offset="1" style="stop-color:#7C7C7C"/>
		</linearGradient>
		<path style="fill:url(#SVGID_00000121275250993622881780000016363296474782293183_);" d="M214.1,24.7v21.2h-3.3V24.7H214.1z"/>
		
			<linearGradient id="SVGID_00000010305033664227592960000012305944062019147188_" gradientUnits="userSpaceOnUse" x1="220.005" y1="-210.1621" x2="220.005" y2="-181.0619" gradientTransform="matrix(1 0 0 1 0 230)">
			<stop  offset="0" style="stop-color:#7C7C7C"/>
			<stop  offset="0.53" style="stop-color:#E3E3E3"/>
			<stop  offset="1" style="stop-color:#7C7C7C"/>
		</linearGradient>
		<path style="fill:url(#SVGID_00000010305033664227592960000012305944062019147188_);" d="M218.5,27.5c-0.4-0.4-0.6-0.9-0.6-1.5
			s0.2-1.1,0.6-1.5s0.9-0.6,1.5-0.6c0.6,0,1.1,0.2,1.5,0.6s0.6,0.9,0.6,1.5s-0.2,1.1-0.6,1.5s-0.9,0.6-1.5,0.6
			C219.4,28,218.9,27.9,218.5,27.5z M221.6,30.1V46h-3.3V30.2C218.4,30.2,221.6,30.2,221.6,30.1z"/>
		
			<linearGradient id="SVGID_00000081608074655168963830000009456884565792404359_" gradientUnits="userSpaceOnUse" x1="233.16" y1="-210.1621" x2="233.16" y2="-181.0619" gradientTransform="matrix(1 0 0 1 0 230)">
			<stop  offset="0" style="stop-color:#7C7C7C"/>
			<stop  offset="0.53" style="stop-color:#E3E3E3"/>
			<stop  offset="1" style="stop-color:#7C7C7C"/>
		</linearGradient>
		<path style="fill:url(#SVGID_00000081608074655168963830000009456884565792404359_);" d="M237.2,30.7c1,0.5,1.8,1.3,2.3,2.3
			c0.6,1,0.8,2.2,0.8,3.7v9.3h-3.2v-8.8c0-1.4-0.4-2.5-1.1-3.3s-1.7-1.1-2.9-1.1c-1.2,0-2.2,0.4-2.9,1.1c-0.7,0.8-1.1,1.8-1.1,3.3
			v8.8h-3.3V30.1h3.3V32c0.5-0.6,1.2-1.2,2.1-1.5s1.7-0.5,2.6-0.5C235.1,29.9,236.3,30.1,237.2,30.7z"/>
		
			<linearGradient id="SVGID_00000121281427158787692400000017891316191352682649_" gradientUnits="userSpaceOnUse" x1="251.57" y1="-210.1621" x2="251.57" y2="-181.0618" gradientTransform="matrix(1 0 0 1 0 230)">
			<stop  offset="0" style="stop-color:#7C7C7C"/>
			<stop  offset="0.53" style="stop-color:#E3E3E3"/>
			<stop  offset="1" style="stop-color:#7C7C7C"/>
		</linearGradient>
		<path style="fill:url(#SVGID_00000121281427158787692400000017891316191352682649_);" d="M254.2,30.6c0.9,0.5,1.7,1.1,2.2,1.8
			v-2.3h3.3v16.1c0,1.5-0.3,2.8-0.9,3.9c-0.6,1.1-1.5,2-2.6,2.7c-1.2,0.7-2.5,1-4.1,1c-2.1,0-3.9-0.5-5.3-1.5
			c-1.4-1-2.2-2.4-2.4-4.1h3.2c0.2,0.8,0.8,1.5,1.6,2c0.8,0.5,1.8,0.8,2.9,0.8c1.3,0,2.4-0.4,3.2-1.2s1.2-2,1.2-3.5v-2.6
			c-0.6,0.8-1.3,1.4-2.2,1.9c-0.9,0.5-2,0.8-3.2,0.8c-1.4,0-2.6-0.3-3.8-1c-1.1-0.7-2-1.7-2.7-2.9c-0.7-1.2-1-2.7-1-4.3s0.3-3,1-4.2
			c0.7-1.2,1.6-2.2,2.7-2.9s2.4-1,3.8-1C252.1,29.9,253.2,30.1,254.2,30.6z M255.7,35.2c-0.4-0.8-1-1.4-1.8-1.8
			c-0.7-0.4-1.5-0.6-2.4-0.6s-1.6,0.2-2.4,0.6s-1.3,1-1.8,1.8c-0.4,0.8-0.7,1.7-0.7,2.8s0.2,2,0.7,2.9c0.4,0.8,1,1.5,1.8,1.9
			s1.5,0.7,2.3,0.7c0.8,0,1.6-0.2,2.4-0.6c0.7-0.4,1.3-1,1.8-1.8c0.4-0.8,0.7-1.8,0.7-2.8S256.2,36,255.7,35.2z"/>
		
			<linearGradient id="SVGID_00000073718004381929048490000006176611986784873373_" gradientUnits="userSpaceOnUse" x1="269.445" y1="-210.1621" x2="269.445" y2="-181.0619" gradientTransform="matrix(1 0 0 1 0 230)">
			<stop  offset="0" style="stop-color:#7C7C7C"/>
			<stop  offset="0.53" style="stop-color:#E3E3E3"/>
			<stop  offset="1" style="stop-color:#7C7C7C"/>
		</linearGradient>
		<path style="fill:url(#SVGID_00000073718004381929048490000006176611986784873373_);" d="M266.4,45.5c-1-0.5-1.8-1.1-2.3-1.8
			c-0.6-0.8-0.9-1.6-0.9-2.6h3.4c0.1,0.7,0.4,1.2,1,1.7s1.3,0.7,2.2,0.7c0.9,0,1.6-0.2,2.1-0.5s0.8-0.8,0.8-1.4c0-0.6-0.3-1-0.9-1.3
			c-0.6-0.3-1.5-0.6-2.7-1c-1.2-0.3-2.1-0.6-2.9-1c-0.7-0.3-1.4-0.8-1.9-1.4c-0.5-0.6-0.8-1.5-0.8-2.5c0-0.8,0.2-1.6,0.7-2.3
			c0.5-0.7,1.2-1.2,2.1-1.6c0.9-0.4,2-0.6,3.2-0.6c1.8,0,3.2,0.5,4.3,1.4c1.1,0.9,1.7,2.2,1.8,3.7h-3.3c-0.1-0.7-0.3-1.3-0.9-1.7
			s-1.2-0.6-2.1-0.6c-0.9,0-1.5,0.2-2,0.5c-0.5,0.3-0.7,0.8-0.7,1.3c0,0.4,0.1,0.8,0.5,1.1s0.7,0.5,1.1,0.7s1.1,0.4,2,0.6
			c1.1,0.3,2.1,0.6,2.8,0.9c0.7,0.3,1.4,0.8,1.9,1.4c0.5,0.6,0.8,1.4,0.8,2.4c0,0.9-0.2,1.7-0.8,2.4s-1.2,1.3-2.1,1.7
			c-0.9,0.4-2,0.6-3.2,0.6C268.5,46.2,267.4,46,266.4,45.5z"/>
	</g>
	<g>
		
			<linearGradient id="SVGID_00000147902801455729127210000015825714045696129214_" gradientUnits="userSpaceOnUse" x1="11.8242" y1="-183.72" x2="54.6856" y2="-183.72" gradientTransform="matrix(1 0 0 1 0 230)">
			<stop  offset="0" style="stop-color:#7C7C7C"/>
			<stop  offset="0.46" style="stop-color:#E3E3E3"/>
			<stop  offset="0.6" style="stop-color:#EAEAEA"/>
			<stop  offset="1" style="stop-color:#7C7C7C"/>
		</linearGradient>
		<path style="fill:url(#SVGID_00000147902801455729127210000015825714045696129214_);" d="M28,60l0,7.7c5.6-0.7,10.2-1.7,13.7-3
			c5.2-1.9,8.9-4.4,11-7.4c2.1-3.1,2.5-6.4,1.2-9.9c-1.1-3.1-2.9-5-5.3-5.8c-2.4-0.7-7-1-13.8-0.7c-4.5,0.2-7.9,0-10.2-0.5
			c-2.2-0.5-4.2-1.5-6.2-3c-1.9-1.5-3.2-3.5-4.2-6c-1-2.6-1.2-4.9-0.7-6.7c-2,3.2-2.3,6.8-0.9,10.7c0.9,2.5,2.4,4.6,4.5,6.2
			c2,1.5,4.2,2.5,6.6,2.8c1,0.1,2.3,0.2,3.8,0.3c-0.1,0.8-0.6,2.7-3.4,3.5c3,0.5,3.7,2.5,3.8,3.2L28,60z M31.5,47.9
			c-2.8-0.4-3.6-2.2-3.8-3c1.9,0.1,4.3,0.1,7.1,0c5.5-0.1,9.4,0.1,11.5,0.8c2,0.5,3.4,1.8,4.2,3.8c0.7,1.9,0.2,3.8-1.3,5.9
			c-1.5,2.1-3.8,3.7-7,4.8c-1,0.3-1.9,0.6-2.8,0.9c-0.4,0.1-0.8,0.1-1.2,0.2c-0.3,0-0.5,0.1-0.8,0.1c-8,0.8-9.2-7.6-9.3-9.9
			C28.1,50.8,28.5,48.7,31.5,47.9z"/>
		
			<linearGradient id="SVGID_00000003808096329219772050000009238544833358361752_" gradientUnits="userSpaceOnUse" x1="18.2544" y1="-199.44" x2="61.1058" y2="-199.44" gradientTransform="matrix(1 0 0 1 0 230)">
			<stop  offset="0" style="stop-color:#7C7C7C"/>
			<stop  offset="0.46" style="stop-color:#E3E3E3"/>
			<stop  offset="0.6" style="stop-color:#EAEAEA"/>
			<stop  offset="1" style="stop-color:#7C7C7C"/>
		</linearGradient>
		<path style="fill:url(#SVGID_00000003808096329219772050000009238544833358361752_);" d="M38.1,35.8c4.5-0.2,7.9,0,10.2,0.5
			c2.2,0.5,4.2,1.5,6.2,3c1.8,1.5,3.2,3.5,4.2,6c1,2.6,1.2,4.9,0.7,6.7c2-3.2,2.3-6.8,0.9-10.7c-0.9-2.5-2.4-4.6-4.5-6.2
			c-2-1.5-4.2-2.5-6.6-2.8c-2.2-0.3-5.9-0.4-11-0.3c-5.5,0.1-9.4-0.1-11.5-0.8c-2-0.5-3.4-1.8-4.1-3.8c-0.7-1.9-0.2-3.8,1.3-5.9
			c1.5-2.1,3.8-3.7,7-4.9c1-0.4,1.9-0.6,2.8-0.9c0.4-0.1,0.8-0.1,1.2-0.2c0.3,0,0.5-0.1,0.8-0.1c2.3-0.2,4.1,0.3,5.4,1.2
			c4.7,3.5,3.5,12.6,3.5,12.6l0.5,0l0-7.6l0,0l0-5l0-7.7c-5.6,0.7-10.2,1.6-13.7,3c-5.2,1.9-8.9,4.4-11,7.4
			c-2.1,3.1-2.5,6.4-1.2,9.9c1.1,3.1,2.9,5,5.3,5.8C26.7,35.8,31.3,36.1,38.1,35.8z"/>
	</g>
</g>
<rect x="529.6" y="-127.4" class="st5" width="499.6" height="332.8"/>
<g class="st1">
	<g class="st2">
		<path d="M707.9,31.2c0.9-1.5,2.1-2.8,3.7-3.6s3.3-1.3,5.1-1.3c2.1,0,4,0.5,5.7,1.6c1.7,1,2.8,2.5,3.6,4.4H722
			c-0.5-1-1.2-1.8-2.2-2.4c-0.9-0.5-2-0.8-3.2-0.8c-1.3,0-2.5,0.3-3.5,0.9s-1.8,1.4-2.4,2.6c-0.6,1.1-0.9,2.4-0.9,3.9
			s0.3,2.8,0.9,3.9c0.6,1.1,1.4,2,2.4,2.6c1,0.6,2.2,0.9,3.5,0.9c1.2,0,2.3-0.3,3.2-0.8s1.6-1.3,2.2-2.3h3.9c-0.8,1.9-2,3.4-3.6,4.4
			c-1.7,1-3.5,1.5-5.7,1.5c-1.9,0-3.6-0.4-5.1-1.3s-2.8-2.1-3.7-3.6s-1.4-3.3-1.4-5.2C706.5,34.5,707,32.7,707.9,31.2z"/>
		<path d="M744,30.6l-9.7,23.2h-3.4l3.2-7.7l-6.2-15.5h3.6l4.4,12l4.6-12L744,30.6L744,30.6z"/>
		<path d="M752,31.1c1-0.5,2-0.7,3.2-0.7c1.4,0,2.7,0.3,3.8,1s2,1.6,2.7,2.9c0.7,1.2,1,2.6,1,4.2s-0.3,3-1,4.3
			c-0.7,1.2-1.5,2.2-2.7,2.9c-1.1,0.7-2.4,1-3.8,1c-1.2,0-2.3-0.2-3.3-0.7s-1.7-1.1-2.2-1.8v2.3h-3.3V25.2h3.3V33
			C750.3,32.2,751,31.6,752,31.1z M758.7,35.7c-0.5-0.8-1-1.4-1.8-1.8c-0.7-0.4-1.5-0.6-2.4-0.6c-0.8,0-1.6,0.2-2.3,0.6
			c-0.7,0.4-1.3,1-1.8,1.8c-0.5,0.8-0.7,1.8-0.7,2.8s0.2,2,0.7,2.8c0.5,0.8,1,1.4,1.8,1.8c0.7,0.4,1.5,0.6,2.3,0.6
			c0.8,0,1.6-0.2,2.4-0.7c0.7-0.4,1.3-1.1,1.8-1.9s0.7-1.8,0.7-2.9C759.3,37.4,759.1,36.5,758.7,35.7z"/>
		<path d="M780.3,39.8h-12.1c0.1,1.3,0.6,2.3,1.4,3c0.8,0.8,1.9,1.2,3.1,1.2c1.8,0,3-0.7,3.7-2.2h3.5c-0.5,1.5-1.3,2.6-2.6,3.6
			c-1.2,0.9-2.8,1.4-4.7,1.4c-1.5,0-2.9-0.3-4.1-1s-2.1-1.6-2.8-2.9s-1-2.7-1-4.3c0-1.6,0.3-3,1-4.3c0.7-1.2,1.6-2.2,2.8-2.9
			c1.2-0.7,2.6-1,4.1-1c1.5,0,2.8,0.3,4,1c1.2,0.6,2.1,1.6,2.7,2.7c0.7,1.2,1,2.5,1,4.1C780.4,38.8,780.3,39.3,780.3,39.8z
			 M777,37.1c0-1.2-0.5-2.2-1.3-2.9c-0.8-0.7-1.9-1.1-3.1-1.1c-1.1,0-2.1,0.4-2.9,1.1c-0.8,0.7-1.3,1.7-1.4,2.9L777,37.1L777,37.1z"
			/>
		<path d="M788.8,31.1c0.8-0.5,1.7-0.7,2.8-0.7v3.4h-0.8c-1.3,0-2.2,0.3-2.9,1s-1,1.8-1,3.4v8.3h-3.3V30.7h3.3V33
			C787.3,32.1,788,31.5,788.8,31.1z"/>
		<path d="M805,46c-1.1-0.5-1.9-1.1-2.5-2c-0.6-0.9-0.9-1.9-0.9-3h3.5c0.1,0.9,0.4,1.6,1,2.1c0.6,0.5,1.5,0.8,2.5,0.8
			c1.1,0,2-0.3,2.6-0.8s1-1.2,1-2.1c0-0.7-0.2-1.2-0.6-1.6c-0.4-0.4-0.9-0.8-1.5-1c-0.6-0.2-1.4-0.5-2.4-0.8c-1.3-0.3-2.4-0.7-3.2-1
			c-0.8-0.3-1.5-0.9-2.1-1.7s-0.9-1.7-0.9-3c0-1.1,0.3-2.1,0.9-3s1.4-1.5,2.4-2c1-0.5,2.2-0.7,3.6-0.7c1.9,0,3.5,0.5,4.8,1.5
			c1.2,1,1.9,2.3,2,4h-3.6c-0.1-0.7-0.4-1.4-1-1.9c-0.6-0.5-1.5-0.8-2.5-0.8c-0.9,0-1.7,0.2-2.3,0.7c-0.6,0.5-0.9,1.2-0.9,2.1
			c0,0.6,0.2,1.1,0.6,1.5c0.4,0.4,0.8,0.7,1.4,0.9s1.4,0.5,2.3,0.8c1.3,0.4,2.4,0.7,3.2,1.1c0.8,0.4,1.5,0.9,2.1,1.7s0.9,1.8,0.9,3
			c0,1-0.3,2-0.8,2.9c-0.5,0.9-1.3,1.6-2.4,2.2s-2.3,0.8-3.7,0.8C807.3,46.7,806.1,46.4,805,46z"/>
		<path d="M819.6,28c-0.4-0.4-0.6-0.9-0.6-1.5s0.2-1.1,0.6-1.5c0.4-0.4,0.9-0.6,1.5-0.6c0.6,0,1.1,0.2,1.5,0.6s0.6,0.9,0.6,1.5
			s-0.2,1.1-0.6,1.5c-0.4,0.4-0.9,0.6-1.5,0.6C820.5,28.6,820,28.4,819.6,28z M822.7,30.6v15.8h-3.3V30.7
			C819.4,30.7,822.7,30.7,822.7,30.6z"/>
		<path d="M832.5,31.1c1-0.5,2-0.7,3.2-0.7c1.4,0,2.7,0.3,3.8,1s2,1.6,2.7,2.9c0.7,1.2,1,2.6,1,4.2s-0.3,3-1,4.3
			c-0.7,1.2-1.5,2.2-2.7,2.9c-1.1,0.7-2.4,1-3.8,1c-1.2,0-2.3-0.2-3.3-0.7s-1.7-1.1-2.2-1.8v2.3H827V25.2h3.3V33
			C830.8,32.2,831.5,31.6,832.5,31.1z M839.2,35.7c-0.5-0.8-1-1.4-1.8-1.8c-0.7-0.4-1.5-0.6-2.4-0.6c-0.8,0-1.6,0.2-2.3,0.6
			c-0.7,0.4-1.3,1-1.8,1.8c-0.5,0.8-0.7,1.8-0.7,2.8s0.2,2,0.7,2.8c0.5,0.8,1,1.4,1.8,1.8c0.7,0.4,1.5,0.6,2.3,0.6
			c0.8,0,1.6-0.2,2.4-0.7c0.7-0.4,1.3-1.1,1.8-1.9s0.7-1.8,0.7-2.9C839.8,37.4,839.6,36.5,839.2,35.7z"/>
		<path d="M849.7,25.2v21.2h-3.3V25.2H849.7z"/>
		<path d="M854.2,28c-0.4-0.4-0.6-0.9-0.6-1.5s0.2-1.1,0.6-1.5c0.4-0.4,0.9-0.6,1.5-0.6c0.6,0,1.1,0.2,1.5,0.6s0.6,0.9,0.6,1.5
			s-0.2,1.1-0.6,1.5c-0.4,0.4-0.9,0.6-1.5,0.6C855,28.6,854.6,28.4,854.2,28z M857.2,30.6v15.8H854V30.7
			C854,30.7,857.2,30.7,857.2,30.6z"/>
		<path d="M872.9,31.2c1,0.5,1.8,1.3,2.3,2.3c0.6,1,0.8,2.2,0.8,3.7v9.3h-3.2v-8.8c0-1.4-0.3-2.5-1.1-3.3s-1.7-1.1-2.9-1.1
			c-1.2,0-2.2,0.4-2.9,1.1c-0.7,0.8-1.1,1.8-1.1,3.3v8.8h-3.3V30.6h3.3v1.8c0.5-0.6,1.2-1.2,2-1.5s1.7-0.5,2.7-0.5
			C870.8,30.4,871.9,30.6,872.9,31.2z"/>
		<path d="M889.8,31.1c1,0.5,1.7,1.1,2.2,1.8v-2.3h3.3v16.1c0,1.5-0.3,2.8-0.9,3.9s-1.5,2-2.7,2.7c-1.2,0.7-2.5,1-4.2,1
			c-2.1,0-3.9-0.5-5.3-1.5c-1.4-1-2.2-2.4-2.4-4.1h3.2c0.2,0.8,0.8,1.5,1.6,2c0.8,0.5,1.8,0.8,2.9,0.8c1.3,0,2.4-0.4,3.2-1.2
			s1.2-2,1.2-3.5v-2.6c-0.6,0.8-1.3,1.4-2.2,1.9c-1,0.5-2,0.8-3.2,0.8c-1.4,0-2.6-0.3-3.8-1c-1.1-0.7-2-1.7-2.7-2.9
			c-0.7-1.2-1-2.7-1-4.3s0.3-3,1-4.2c0.7-1.2,1.6-2.2,2.7-2.9c1.1-0.7,2.4-1,3.8-1C887.8,30.4,888.8,30.6,889.8,31.1z M891.3,35.7
			c-0.5-0.8-1-1.4-1.8-1.8c-0.7-0.4-1.5-0.6-2.3-0.6c-0.8,0-1.6,0.2-2.3,0.6s-1.3,1-1.8,1.8c-0.5,0.8-0.7,1.7-0.7,2.8s0.2,2,0.7,2.9
			c0.5,0.8,1,1.5,1.8,1.9c0.7,0.4,1.5,0.7,2.3,0.7c0.8,0,1.6-0.2,2.3-0.6c0.7-0.4,1.3-1,1.8-1.8c0.5-0.8,0.7-1.8,0.7-2.8
			S891.8,36.5,891.3,35.7z"/>
		<path d="M902,46c-1-0.5-1.8-1.1-2.3-1.8c-0.6-0.8-0.9-1.6-0.9-2.6h3.4c0.1,0.7,0.4,1.2,1,1.7s1.3,0.7,2.2,0.7
			c0.9,0,1.6-0.2,2.1-0.5s0.8-0.8,0.8-1.4c0-0.6-0.3-1-0.8-1.3c-0.6-0.3-1.5-0.6-2.7-1c-1.2-0.3-2.2-0.6-2.9-1
			c-0.7-0.3-1.4-0.8-1.9-1.4c-0.5-0.6-0.8-1.5-0.8-2.5c0-0.8,0.2-1.6,0.7-2.3c0.5-0.7,1.2-1.2,2.1-1.6s2-0.6,3.2-0.6
			c1.8,0,3.2,0.5,4.3,1.4c1.1,0.9,1.7,2.2,1.8,3.7h-3.3c-0.1-0.7-0.3-1.3-0.9-1.7c-0.5-0.4-1.2-0.6-2.1-0.6c-0.9,0-1.5,0.2-2,0.5
			c-0.5,0.3-0.7,0.8-0.7,1.3c0,0.4,0.2,0.8,0.5,1.1s0.7,0.5,1.1,0.7s1.1,0.4,2,0.6c1.2,0.3,2.1,0.6,2.8,0.9c0.7,0.3,1.4,0.8,1.9,1.4
			c0.5,0.6,0.8,1.4,0.8,2.4c0,0.9-0.2,1.7-0.8,2.4s-1.2,1.3-2.1,1.7s-2,0.6-3.2,0.6C904.1,46.7,903,46.5,902,46z"/>
	</g>
	<g class="st2">
		<path d="M663.6,60.5l0,7.7c5.6-0.7,10.2-1.7,13.7-3c5.2-1.9,8.9-4.4,11-7.4c2.1-3.1,2.5-6.4,1.2-9.9c-1.1-3.1-2.9-5-5.3-5.8
			c-2.4-0.7-7-1-13.8-0.7c-4.5,0.2-7.9,0-10.2-0.5c-2.2-0.5-4.2-1.5-6.2-3c-1.8-1.5-3.2-3.5-4.2-6c-1-2.6-1.2-4.9-0.7-6.7
			c-2,3.2-2.3,6.8-0.9,10.7c0.9,2.5,2.4,4.6,4.5,6.2c2,1.5,4.2,2.5,6.6,2.8c1,0.1,2.3,0.2,3.8,0.3c-0.1,0.8-0.6,2.7-3.4,3.5
			c3,0.5,3.7,2.5,3.8,3.2L663.6,60.5z M667.1,48.4c-2.8-0.4-3.6-2.2-3.8-3c1.9,0.1,4.3,0.1,7.1,0c5.5-0.1,9.4,0.1,11.5,0.8
			c2,0.5,3.4,1.8,4.2,3.8c0.7,1.9,0.2,3.8-1.3,5.9c-1.5,2.1-3.8,3.7-7,4.8c-1,0.3-1.9,0.6-2.8,0.9c-0.4,0.1-0.8,0.1-1.2,0.2
			c-0.3,0-0.5,0.1-0.8,0.1c-8,0.8-9.2-7.6-9.3-9.9C663.8,51.3,664.1,49.2,667.1,48.4z"/>
		<path d="M673.7,36.3c4.5-0.2,7.9,0,10.2,0.5c2.2,0.5,4.2,1.5,6.2,3c1.8,1.5,3.2,3.5,4.2,6c1,2.6,1.2,4.9,0.7,6.7
			c2-3.2,2.3-6.8,0.9-10.7c-0.9-2.5-2.4-4.6-4.5-6.2c-2-1.5-4.2-2.5-6.6-2.8c-2.2-0.3-5.9-0.4-11-0.3c-5.5,0.1-9.4-0.1-11.5-0.8
			c-2-0.5-3.4-1.8-4.2-3.8c-0.7-1.9-0.2-3.8,1.3-5.9c1.5-2.1,3.8-3.7,7-4.9c1-0.4,1.9-0.6,2.8-0.9c0.4-0.1,0.8-0.1,1.2-0.2
			c0.3,0,0.5-0.1,0.8-0.1c2.3-0.2,4.1,0.3,5.4,1.2c4.7,3.5,3.5,12.6,3.5,12.6l0.5,0l0-7.6l0,0l0-5l0-7.7c-5.6,0.7-10.2,1.6-13.7,3
			c-5.2,1.9-8.9,4.4-11,7.4c-2.1,3.1-2.5,6.4-1.2,9.9c1.1,3.1,2.9,5,5.3,5.8C662.3,36.3,666.9,36.6,673.7,36.3z"/>
	</g>
</g>
</svg>
